STARTFONT 2.1
FONT -FontForge-Righteous-Book-R-Normal--18-180-72-72-P-96-ISO10646-1
SIZE 18 72 72
FONTBOUNDINGBOX 23 21 -3 -4
COMMENT "Generated by fontforge, http://fontforge.sourceforge.net"
COMMENT "Copyright (c) 2011 by Brian J. Bonislawsky DBA Astigmatic (AOETI) (astigma@astigmatic.com), with ReservedFont Name "Righteous""
STARTPROPERTIES 39
FOUNDRY "FontForge"
FAMILY_NAME "Righteous"
WEIGHT_NAME "Book"
SLANT "R"
SETWIDTH_NAME "Normal"
ADD_STYLE_NAME ""
PIXEL_SIZE 18
POINT_SIZE 180
RESOLUTION_X 72
RESOLUTION_Y 72
SPACING "P"
AVERAGE_WIDTH 96
CHARSET_REGISTRY "ISO10646"
CHARSET_ENCODING "1"
FONTNAME_REGISTRY ""
CHARSET_COLLECTIONS "ISO8859-2 ISO8859-9 ISO8859-4 ISO10646-1"
FONT_NAME "Righteous-Regular"
FACE_NAME "Righteous"
COPYRIGHT "Copyright (c) 2011 by Brian J. Bonislawsky DBA Astigmatic (AOETI) (astigma@astigmatic.com), with ReservedFont Name "Righteous""
FONT_VERSION "1.000"
FONT_ASCENT 14
FONT_DESCENT 4
UNDERLINE_POSITION -2
UNDERLINE_THICKNESS 1
X_HEIGHT 8
CAP_HEIGHT 12
RAW_ASCENT 799
RAW_DESCENT 200
NORM_SPACE 5
RELATIVE_WEIGHT 40
RELATIVE_SETWIDTH 50
SUPERSCRIPT_X 0
SUPERSCRIPT_Y 8
SUPERSCRIPT_SIZE 11
SUBSCRIPT_X 0
SUBSCRIPT_Y 2
SUBSCRIPT_SIZE 11
AVG_LOWERCASE_WIDTH 94
AVG_UPPERCASE_WIDTH 114
ENDPROPERTIES
CHARS 372
STARTCHAR space
ENCODING 32
SWIDTH 279 0
DWIDTH 5 0
BBX 1 1 0 0
BITMAP
00
ENDCHAR
STARTCHAR exclam
ENCODING 33
SWIDTH 274 0
DWIDTH 5 0
BBX 3 14 1 -1
BITMAP
E0
E0
E0
E0
E0
E0
E0
E0
E0
C0
00
E0
E0
40
ENDCHAR
STARTCHAR quotedbl
ENCODING 34
SWIDTH 409 0
DWIDTH 7 0
BBX 5 4 1 9
BITMAP
D8
D8
D8
D8
ENDCHAR
STARTCHAR numbersign
ENCODING 35
SWIDTH 561 0
DWIDTH 10 0
BBX 8 8 1 2
BITMAP
33
7F
7F
36
FF
FE
6C
CC
ENDCHAR
STARTCHAR dollar
ENCODING 36
SWIDTH 458 0
DWIDTH 8 0
BBX 7 13 1 0
BITMAP
30
30
30
FC
FC
C0
FC
3E
FE
FC
30
30
30
ENDCHAR
STARTCHAR percent
ENCODING 37
SWIDTH 685 0
DWIDTH 12 0
BBX 11 13 1 0
BITMAP
60C0
F180
9900
9B00
DE00
F600
2C00
0FC0
1BC0
1A60
3260
33C0
63C0
ENDCHAR
STARTCHAR ampersand
ENCODING 38
SWIDTH 485 0
DWIDTH 9 0
BBX 7 13 1 0
BITMAP
18
18
7E
FE
C0
C0
78
F8
C0
C0
7E
3E
18
ENDCHAR
STARTCHAR quotesingle
ENCODING 39
SWIDTH 238 0
DWIDTH 4 0
BBX 2 4 1 9
BITMAP
C0
C0
C0
C0
ENDCHAR
STARTCHAR parenleft
ENCODING 40
SWIDTH 351 0
DWIDTH 6 0
BBX 5 16 1 -2
BITMAP
30
70
60
E0
E0
C0
C0
C0
C0
C0
E0
E0
60
70
30
38
ENDCHAR
STARTCHAR parenright
ENCODING 41
SWIDTH 351 0
DWIDTH 6 0
BBX 6 16 0 -2
BITMAP
70
30
38
38
18
1C
1C
1C
1C
1C
18
38
38
30
70
E0
ENDCHAR
STARTCHAR asterisk
ENCODING 42
SWIDTH 589 0
DWIDTH 11 0
BBX 9 9 1 6
BITMAP
1C00
1C00
DD00
FF80
7F00
3C00
3E00
7700
6600
ENDCHAR
STARTCHAR plus
ENCODING 43
SWIDTH 485 0
DWIDTH 9 0
BBX 7 7 1 3
BITMAP
38
38
FE
FE
FE
38
38
ENDCHAR
STARTCHAR comma
ENCODING 44
SWIDTH 264 0
DWIDTH 5 0
BBX 3 4 1 -2
BITMAP
E0
E0
60
40
ENDCHAR
STARTCHAR hyphen
ENCODING 45
SWIDTH 528 0
DWIDTH 10 0
BBX 7 3 1 5
BITMAP
FE
FE
FE
ENDCHAR
STARTCHAR period
ENCODING 46
SWIDTH 263 0
DWIDTH 5 0
BBX 3 3 1 -1
BITMAP
E0
E0
40
ENDCHAR
STARTCHAR slash
ENCODING 47
SWIDTH 490 0
DWIDTH 9 0
BBX 7 13 1 0
BITMAP
06
0E
0C
1C
1C
18
38
30
70
70
60
E0
C0
ENDCHAR
STARTCHAR zero
ENCODING 48
SWIDTH 642 0
DWIDTH 12 0
BBX 10 13 1 0
BITMAP
1E00
7F00
7F80
E180
C1C0
C1C0
C1C0
C1C0
C1C0
E180
F380
7F80
3E00
ENDCHAR
STARTCHAR one
ENCODING 49
SWIDTH 317 0
DWIDTH 6 0
BBX 3 13 1 0
BITMAP
E0
E0
E0
60
60
60
60
60
60
60
60
60
60
ENDCHAR
STARTCHAR two
ENCODING 50
SWIDTH 570 0
DWIDTH 10 0
BBX 9 13 1 0
BITMAP
FC00
FE00
FF00
0380
0380
1F00
7F00
FE00
E000
C000
FF00
FF00
FF00
ENDCHAR
STARTCHAR three
ENCODING 51
SWIDTH 586 0
DWIDTH 11 0
BBX 9 13 1 0
BITMAP
FC00
FF00
FF00
0380
0380
7F00
7F00
7F00
0380
0380
FF00
FF00
FE00
ENDCHAR
STARTCHAR four
ENCODING 52
SWIDTH 630 0
DWIDTH 11 0
BBX 10 13 1 0
BITMAP
6000
6000
6300
E300
E300
E300
E300
C300
FFC0
FFC0
0300
0300
0300
ENDCHAR
STARTCHAR five
ENCODING 53
SWIDTH 585 0
DWIDTH 11 0
BBX 9 13 1 0
BITMAP
7F00
7F00
FF00
E000
E000
FE00
FF00
FF80
0380
0380
FF80
FF00
FE00
ENDCHAR
STARTCHAR six
ENCODING 54
SWIDTH 615 0
DWIDTH 11 0
BBX 9 13 1 0
BITMAP
1C00
3800
7000
7000
FF00
FF80
E380
E180
C180
E180
E380
7F00
3E00
ENDCHAR
STARTCHAR seven
ENCODING 55
SWIDTH 516 0
DWIDTH 9 0
BBX 9 13 0 0
BITMAP
FF80
FF80
FF80
0300
0700
0700
0600
0E00
0C00
1C00
1C00
1800
3800
ENDCHAR
STARTCHAR eight
ENCODING 56
SWIDTH 618 0
DWIDTH 11 0
BBX 9 13 1 0
BITMAP
3E00
7F00
7780
E380
6380
7F00
7F00
F380
C180
C180
E180
FF80
7F00
ENDCHAR
STARTCHAR nine
ENCODING 57
SWIDTH 616 0
DWIDTH 11 0
BBX 9 13 1 0
BITMAP
3E00
7F00
FF80
E380
C180
C180
E380
FF80
7F80
3B80
0700
0E00
1C00
ENDCHAR
STARTCHAR colon
ENCODING 58
SWIDTH 276 0
DWIDTH 5 0
BBX 3 8 1 -1
BITMAP
E0
E0
40
00
00
E0
E0
40
ENDCHAR
STARTCHAR semicolon
ENCODING 59
SWIDTH 276 0
DWIDTH 5 0
BBX 3 9 1 -2
BITMAP
E0
E0
40
00
00
E0
E0
60
40
ENDCHAR
STARTCHAR less
ENCODING 60
SWIDTH 478 0
DWIDTH 9 0
BBX 7 10 1 2
BITMAP
0C
1E
3C
78
F0
F0
78
3C
1E
0C
ENDCHAR
STARTCHAR equal
ENCODING 61
SWIDTH 539 0
DWIDTH 10 0
BBX 8 6 1 3
BITMAP
FF
FF
00
FF
FF
FF
ENDCHAR
STARTCHAR greater
ENCODING 62
SWIDTH 478 0
DWIDTH 9 0
BBX 7 10 1 2
BITMAP
60
E0
70
38
1C
1E
3C
78
F0
60
ENDCHAR
STARTCHAR question
ENCODING 63
SWIDTH 603 0
DWIDTH 11 0
BBX 9 14 1 -1
BITMAP
FC00
FF00
FF80
0180
0180
0780
1F00
3E00
3800
3000
0000
3800
3800
1000
ENDCHAR
STARTCHAR at
ENCODING 64
SWIDTH 629 0
DWIDTH 11 0
BBX 10 10 1 0
BITMAP
1C00
7F00
E180
DE80
BEC0
B6C0
DFC0
CF80
7000
3C00
ENDCHAR
STARTCHAR A
ENCODING 65
SWIDTH 673 0
DWIDTH 12 0
BBX 10 13 1 0
BITMAP
0C00
3F00
7F80
E1C0
E1C0
E0C0
E0C0
E0C0
FFC0
FFC0
E0C0
E0C0
E0C0
ENDCHAR
STARTCHAR B
ENCODING 66
SWIDTH 666 0
DWIDTH 12 0
BBX 10 13 1 0
BITMAP
FE00
FF80
FFC0
E0C0
E0C0
FFC0
FF80
FFC0
E0C0
E0C0
FFC0
FF80
FF00
ENDCHAR
STARTCHAR C
ENCODING 67
SWIDTH 640 0
DWIDTH 12 0
BBX 11 13 0 0
BITMAP
0780
1FE0
3FE0
7840
7000
6000
E000
6000
6000
7000
3CC0
1FE0
0FC0
ENDCHAR
STARTCHAR D
ENCODING 68
SWIDTH 653 0
DWIDTH 12 0
BBX 10 13 1 0
BITMAP
F800
FF00
FF80
E380
E1C0
E0C0
E0C0
E0C0
E1C0
E1C0
FF80
FF00
FC00
ENDCHAR
STARTCHAR E
ENCODING 69
SWIDTH 578 0
DWIDTH 10 0
BBX 9 13 1 0
BITMAP
FF80
FF80
FF80
E000
E000
FE00
FE00
FE00
E000
E000
FF80
FF80
FF80
ENDCHAR
STARTCHAR F
ENCODING 70
SWIDTH 562 0
DWIDTH 10 0
BBX 9 13 1 0
BITMAP
FF80
FF80
FF80
E000
E000
FC00
FC00
FC00
E000
E000
E000
E000
E000
ENDCHAR
STARTCHAR G
ENCODING 71
SWIDTH 665 0
DWIDTH 12 0
BBX 11 13 0 0
BITMAP
0780
1FE0
3FE0
7840
7000
6000
E000
6060
6060
7060
3CE0
1FE0
0FC0
ENDCHAR
STARTCHAR H
ENCODING 72
SWIDTH 689 0
DWIDTH 12 0
BBX 10 13 1 0
BITMAP
E0C0
E0C0
E0C0
E0C0
E0C0
FFC0
FFC0
FFC0
E0C0
E0C0
E0C0
E0C0
E0C0
ENDCHAR
STARTCHAR I
ENCODING 73
SWIDTH 270 0
DWIDTH 5 0
BBX 3 13 1 0
BITMAP
E0
E0
E0
E0
E0
E0
E0
E0
E0
E0
E0
E0
E0
ENDCHAR
STARTCHAR J
ENCODING 74
SWIDTH 416 0
DWIDTH 8 0
BBX 6 13 0 0
BITMAP
0C
0C
0C
0C
0C
0C
0C
0C
0C
1C
FC
F8
F0
ENDCHAR
STARTCHAR K
ENCODING 75
SWIDTH 625 0
DWIDTH 11 0
BBX 10 13 1 0
BITMAP
E1C0
E180
E380
E700
EE00
EC00
FE00
FE00
F700
E700
E380
E180
E1C0
ENDCHAR
STARTCHAR L
ENCODING 76
SWIDTH 562 0
DWIDTH 10 0
BBX 9 13 1 0
BITMAP
E000
E000
E000
E000
E000
E000
E000
E000
E000
E000
FF80
FF80
FF80
ENDCHAR
STARTCHAR M
ENCODING 77
SWIDTH 819 0
DWIDTH 15 0
BBX 13 13 1 0
BITMAP
39C0
7FF0
FFF0
E738
E738
E738
E738
E738
E738
E738
E738
E738
E738
ENDCHAR
STARTCHAR N
ENCODING 78
SWIDTH 689 0
DWIDTH 12 0
BBX 10 13 1 0
BITMAP
E0C0
F0C0
F0C0
F8C0
F8C0
FCC0
ECC0
EEC0
E7C0
E7C0
E3C0
E1C0
E1C0
ENDCHAR
STARTCHAR O
ENCODING 79
SWIDTH 777 0
DWIDTH 14 0
BBX 14 13 0 0
BITMAP
0780
1FE0
3FF0
7878
7038
6018
E01C
6018
6018
7038
3CF0
1FE0
0FC0
ENDCHAR
STARTCHAR P
ENCODING 80
SWIDTH 642 0
DWIDTH 12 0
BBX 10 13 1 0
BITMAP
FC00
FF00
FF80
E1C0
E0C0
E0C0
E1C0
E1C0
FF80
FF00
E000
E000
E000
ENDCHAR
STARTCHAR Q
ENCODING 81
SWIDTH 777 0
DWIDTH 14 0
BBX 14 16 0 -3
BITMAP
0780
1FE0
3FF0
7878
7038
6018
E01C
6018
6018
7038
3CF0
1FE0
0FC0
00C0
00E0
0070
ENDCHAR
STARTCHAR R
ENCODING 82
SWIDTH 651 0
DWIDTH 12 0
BBX 10 13 1 0
BITMAP
FC00
FF00
FF80
E1C0
E0C0
E0C0
E1C0
E1C0
FF80
FF00
E300
E380
E380
ENDCHAR
STARTCHAR S
ENCODING 83
SWIDTH 610 0
DWIDTH 11 0
BBX 11 13 0 0
BITMAP
1FC0
3FC0
7FC0
E000
E000
7E00
7F80
3FC0
00C0
00E0
7FC0
7FC0
7F80
ENDCHAR
STARTCHAR T
ENCODING 84
SWIDTH 578 0
DWIDTH 10 0
BBX 10 13 0 0
BITMAP
FFC0
FFC0
FFC0
0C00
0C00
0C00
0C00
0C00
0C00
0C00
0C00
0C00
0C00
ENDCHAR
STARTCHAR U
ENCODING 85
SWIDTH 673 0
DWIDTH 12 0
BBX 10 13 1 0
BITMAP
E0C0
E0C0
E0C0
E0C0
E0C0
E0C0
E0C0
E0C0
E0C0
E1C0
7F80
7F80
1E00
ENDCHAR
STARTCHAR V
ENCODING 86
SWIDTH 602 0
DWIDTH 11 0
BBX 11 13 0 0
BITMAP
E0E0
E0C0
71C0
71C0
7180
3380
3B80
3B00
1F00
1F00
1E00
0E00
0E00
ENDCHAR
STARTCHAR W
ENCODING 87
SWIDTH 819 0
DWIDTH 15 0
BBX 13 13 1 0
BITMAP
E738
E738
E738
E738
E738
E738
E738
E738
E738
E738
EF38
7FF0
3DE0
ENDCHAR
STARTCHAR X
ENCODING 88
SWIDTH 608 0
DWIDTH 11 0
BBX 11 13 0 0
BITMAP
E0E0
71C0
71C0
3B80
1F00
1F00
0E00
1F00
1F00
3B80
3B80
71C0
E0E0
ENDCHAR
STARTCHAR Y
ENCODING 89
SWIDTH 620 0
DWIDTH 11 0
BBX 10 13 1 0
BITMAP
C1C0
C1C0
C1C0
C1C0
C1C0
C180
F380
7F00
3E00
1C00
1C00
1C00
1C00
ENDCHAR
STARTCHAR Z
ENCODING 90
SWIDTH 586 0
DWIDTH 11 0
BBX 10 13 0 0
BITMAP
FFC0
FFC0
FF80
0780
0700
0E00
0E00
1C00
1C00
3800
3FC0
7FC0
7FC0
ENDCHAR
STARTCHAR bracketleft
ENCODING 91
SWIDTH 380 0
DWIDTH 7 0
BBX 5 16 1 -2
BITMAP
F8
F8
E0
E0
E0
E0
E0
E0
E0
E0
E0
E0
E0
F8
F8
F8
ENDCHAR
STARTCHAR backslash
ENCODING 92
SWIDTH 490 0
DWIDTH 9 0
BBX 7 13 1 0
BITMAP
C0
E0
E0
60
70
30
38
38
18
1C
0C
0E
06
ENDCHAR
STARTCHAR bracketright
ENCODING 93
SWIDTH 380 0
DWIDTH 7 0
BBX 5 16 1 -2
BITMAP
F8
F8
38
38
38
38
38
38
38
38
38
38
38
F8
F8
F8
ENDCHAR
STARTCHAR asciicircum
ENCODING 94
SWIDTH 293 0
DWIDTH 5 0
BBX 5 4 0 9
BITMAP
20
70
F8
58
ENDCHAR
STARTCHAR underscore
ENCODING 95
SWIDTH 598 0
DWIDTH 11 0
BBX 7 2 2 -4
BITMAP
FE
FE
ENDCHAR
STARTCHAR grave
ENCODING 96
SWIDTH 225 0
DWIDTH 4 0
BBX 4 4 0 9
BITMAP
40
60
F0
30
ENDCHAR
STARTCHAR a
ENCODING 97
SWIDTH 607 0
DWIDTH 11 0
BBX 10 10 0 0
BITMAP
0E00
3F40
7FC0
61C0
E0C0
E0C0
61C0
73C0
7FC0
1E40
ENDCHAR
STARTCHAR b
ENCODING 98
SWIDTH 597 0
DWIDTH 11 0
BBX 9 13 1 0
BITMAP
C000
C000
C000
DC00
FF00
FF80
E380
C180
C180
C180
E380
7F00
3E00
ENDCHAR
STARTCHAR c
ENCODING 99
SWIDTH 521 0
DWIDTH 9 0
BBX 9 10 0 0
BITMAP
0E00
3F00
7F80
6100
E000
E000
6000
7300
3F80
1F00
ENDCHAR
STARTCHAR d
ENCODING 100
SWIDTH 606 0
DWIDTH 11 0
BBX 10 13 0 0
BITMAP
00C0
00C0
00C0
0EC0
3FC0
7FC0
61C0
E1C0
E0C0
61C0
73C0
3FC0
1E40
ENDCHAR
STARTCHAR e
ENCODING 101
SWIDTH 524 0
DWIDTH 9 0
BBX 9 10 0 0
BITMAP
0E00
3F00
7F80
6700
E600
EC00
7D00
7B80
3F80
1F00
ENDCHAR
STARTCHAR f
ENCODING 102
SWIDTH 395 0
DWIDTH 7 0
BBX 8 14 0 0
BITMAP
0F
3F
38
30
30
FE
FE
30
30
30
30
30
30
30
ENDCHAR
STARTCHAR g
ENCODING 103
SWIDTH 607 0
DWIDTH 11 0
BBX 10 14 0 -4
BITMAP
0E00
3F40
7FC0
61C0
E0C0
E0C0
61C0
73C0
3FC0
1EC0
01C0
0F80
0F00
0C00
ENDCHAR
STARTCHAR h
ENCODING 104
SWIDTH 562 0
DWIDTH 10 0
BBX 8 13 1 0
BITMAP
C0
C0
C0
D8
FE
FF
E3
C3
C3
C3
C3
C3
C3
ENDCHAR
STARTCHAR i
ENCODING 105
SWIDTH 235 0
DWIDTH 4 0
BBX 3 14 1 0
BITMAP
40
E0
E0
C0
00
C0
C0
C0
C0
C0
C0
C0
C0
C0
ENDCHAR
STARTCHAR j
ENCODING 106
SWIDTH 237 0
DWIDTH 4 0
BBX 7 18 -3 -4
BITMAP
04
0E
0E
04
00
0C
0C
0C
0C
0C
0C
0C
0C
0C
1C
FC
F8
E0
ENDCHAR
STARTCHAR k
ENCODING 107
SWIDTH 539 0
DWIDTH 10 0
BBX 8 13 1 0
BITMAP
C0
C0
C0
C0
C7
CE
CC
DC
FC
FE
E6
E7
C3
ENDCHAR
STARTCHAR l
ENCODING 108
SWIDTH 235 0
DWIDTH 4 0
BBX 2 13 1 0
BITMAP
C0
C0
C0
C0
C0
C0
C0
C0
C0
C0
C0
C0
C0
ENDCHAR
STARTCHAR m
ENCODING 109
SWIDTH 762 0
DWIDTH 14 0
BBX 12 10 1 0
BITMAP
1080
FFE0
FFF0
C670
C670
C670
C670
C670
C670
C670
ENDCHAR
STARTCHAR n
ENCODING 110
SWIDTH 562 0
DWIDTH 10 0
BBX 8 10 1 0
BITMAP
18
FE
FF
E3
C3
C3
C3
C3
C3
C3
ENDCHAR
STARTCHAR o
ENCODING 111
SWIDTH 579 0
DWIDTH 10 0
BBX 10 10 0 0
BITMAP
0E00
3F80
7F80
61C0
E0C0
E0C0
61C0
7380
3F80
1F00
ENDCHAR
STARTCHAR p
ENCODING 112
SWIDTH 608 0
DWIDTH 11 0
BBX 10 14 1 -4
BITMAP
1C00
BF00
FF80
E180
C1C0
C1C0
E180
F380
FF00
DE00
C000
C000
C000
C000
ENDCHAR
STARTCHAR q
ENCODING 113
SWIDTH 607 0
DWIDTH 11 0
BBX 10 14 0 -4
BITMAP
0E00
3F40
7FC0
61C0
E0C0
E0C0
61C0
73C0
3FC0
1EC0
00C0
00C0
00C0
00C0
ENDCHAR
STARTCHAR r
ENCODING 114
SWIDTH 414 0
DWIDTH 7 0
BBX 6 9 1 0
BITMAP
BC
FC
E0
C0
C0
C0
C0
C0
C0
ENDCHAR
STARTCHAR s
ENCODING 115
SWIDTH 523 0
DWIDTH 9 0
BBX 8 9 1 0
BITMAP
FE
FE
C0
FC
FF
3F
07
FF
FE
ENDCHAR
STARTCHAR t
ENCODING 116
SWIDTH 437 0
DWIDTH 8 0
BBX 7 13 0 0
BITMAP
70
70
70
70
FE
FE
70
70
70
70
38
3E
0E
ENDCHAR
STARTCHAR u
ENCODING 117
SWIDTH 562 0
DWIDTH 10 0
BBX 8 9 1 0
BITMAP
C3
C3
C3
C3
C3
C3
E7
7F
3D
ENDCHAR
STARTCHAR v
ENCODING 118
SWIDTH 532 0
DWIDTH 10 0
BBX 9 9 0 0
BITMAP
E180
6380
7300
7700
3700
3E00
1E00
1E00
1C00
ENDCHAR
STARTCHAR w
ENCODING 119
SWIDTH 756 0
DWIDTH 14 0
BBX 12 9 1 0
BITMAP
C670
C670
C670
C670
C670
C670
EE70
FFE0
7FC0
ENDCHAR
STARTCHAR x
ENCODING 120
SWIDTH 528 0
DWIDTH 10 0
BBX 9 9 0 0
BITMAP
7380
7700
3E00
1E00
1C00
3E00
3F00
7380
E380
ENDCHAR
STARTCHAR y
ENCODING 121
SWIDTH 562 0
DWIDTH 10 0
BBX 8 13 1 -4
BITMAP
C3
C3
C3
C3
C3
C3
E7
7F
3F
07
3E
3C
30
ENDCHAR
STARTCHAR z
ENCODING 122
SWIDTH 481 0
DWIDTH 9 0
BBX 8 9 0 0
BITMAP
FF
FE
0E
0C
18
38
30
7F
7F
ENDCHAR
STARTCHAR braceleft
ENCODING 123
SWIDTH 466 0
DWIDTH 8 0
BBX 8 16 0 -2
BITMAP
1F
1F
18
18
18
18
F8
F0
F8
18
18
18
18
1F
1F
0F
ENDCHAR
STARTCHAR bar
ENCODING 124
SWIDTH 267 0
DWIDTH 5 0
BBX 3 16 1 -2
BITMAP
E0
E0
E0
E0
E0
E0
E0
E0
E0
E0
E0
E0
E0
E0
E0
E0
ENDCHAR
STARTCHAR braceright
ENCODING 125
SWIDTH 466 0
DWIDTH 8 0
BBX 7 16 1 -2
BITMAP
F0
F8
38
38
38
38
3E
1E
1E
38
38
38
38
F8
F0
E0
ENDCHAR
STARTCHAR asciitilde
ENCODING 126
SWIDTH 451 0
DWIDTH 8 0
BBX 6 3 1 5
BITMAP
EC
FC
DC
ENDCHAR
STARTCHAR nonbreakingspace
ENCODING 160
SWIDTH 279 0
DWIDTH 5 0
BBX 1 1 0 0
BITMAP
00
ENDCHAR
STARTCHAR exclamdown
ENCODING 161
SWIDTH 274 0
DWIDTH 5 0
BBX 3 14 1 -3
BITMAP
40
E0
E0
00
C0
E0
E0
E0
E0
E0
E0
E0
E0
E0
ENDCHAR
STARTCHAR cent
ENCODING 162
SWIDTH 462 0
DWIDTH 8 0
BBX 6 13 1 0
BITMAP
10
10
10
7C
EC
C0
C0
C0
EC
7C
10
10
10
ENDCHAR
STARTCHAR sterling
ENCODING 163
SWIDTH 681 0
DWIDTH 12 0
BBX 11 13 1 0
BITMAP
0C00
3C00
3C00
7000
7000
7000
FC00
FC00
7000
70E0
7FC0
7FC0
7F80
ENDCHAR
STARTCHAR currency
ENCODING 164
SWIDTH 454 0
DWIDTH 8 0
BBX 8 8 0 2
BITMAP
42
FF
76
66
66
7E
7F
02
ENDCHAR
STARTCHAR yen
ENCODING 165
SWIDTH 653 0
DWIDTH 12 0
BBX 10 13 1 0
BITMAP
C1C0
C1C0
C1C0
C1C0
C1C0
E1C0
F380
7F80
FF80
FF80
FF80
0C00
0C00
ENDCHAR
STARTCHAR brokenbar
ENCODING 166
SWIDTH 269 0
DWIDTH 5 0
BBX 3 16 1 -2
BITMAP
E0
E0
E0
E0
E0
E0
E0
00
00
E0
E0
E0
E0
E0
E0
E0
ENDCHAR
STARTCHAR section
ENCODING 167
SWIDTH 569 0
DWIDTH 10 0
BBX 8 13 1 0
BITMAP
3F
7F
FF
C0
FE
FF
C3
FF
7F
3F
03
FF
FE
ENDCHAR
STARTCHAR dieresis
ENCODING 168
SWIDTH 300 0
DWIDTH 5 0
BBX 5 2 0 10
BITMAP
C8
D8
ENDCHAR
STARTCHAR copyright
ENCODING 169
SWIDTH 655 0
DWIDTH 12 0
BBX 10 10 1 1
BITMAP
3F00
6180
DEC0
A040
A040
A040
B2C0
5C80
7700
1E00
ENDCHAR
STARTCHAR ordfeminine
ENCODING 170
SWIDTH 451 0
DWIDTH 8 0
BBX 6 9 1 4
BITMAP
34
FC
CC
CC
CC
7C
00
FC
FC
ENDCHAR
STARTCHAR guillemotleft
ENCODING 171
SWIDTH 704 0
DWIDTH 13 0
BBX 12 9 0 0
BITMAP
0C20
1C70
38E0
71C0
F380
79C0
1CE0
0C70
0020
ENDCHAR
STARTCHAR logicalnot
ENCODING 172
SWIDTH 529 0
DWIDTH 10 0
BBX 7 5 1 3
BITMAP
FE
FE
FE
06
06
ENDCHAR
STARTCHAR uni00AD
ENCODING 173
SWIDTH 418 0
DWIDTH 8 0
BBX 5 3 1 5
BITMAP
F8
F8
F8
ENDCHAR
STARTCHAR registered
ENCODING 174
SWIDTH 439 0
DWIDTH 8 0
BBX 6 7 1 6
BITMAP
30
CC
8C
8C
B4
8C
30
ENDCHAR
STARTCHAR macron
ENCODING 175
SWIDTH 247 0
DWIDTH 4 0
BBX 4 1 0 10
BITMAP
F0
ENDCHAR
STARTCHAR degree
ENCODING 176
SWIDTH 381 0
DWIDTH 7 0
BBX 5 5 1 7
BITMAP
F0
F8
D8
F8
70
ENDCHAR
STARTCHAR plusminus
ENCODING 177
SWIDTH 516 0
DWIDTH 9 0
BBX 7 10 1 0
BITMAP
38
38
FE
FE
FE
38
38
00
FE
FE
ENDCHAR
STARTCHAR twosuperior
ENCODING 178
SWIDTH 355 0
DWIDTH 6 0
BBX 4 7 1 6
BITMAP
E0
F0
10
F0
C0
F0
F0
ENDCHAR
STARTCHAR threesuperior
ENCODING 179
SWIDTH 354 0
DWIDTH 6 0
BBX 5 7 1 6
BITMAP
E0
F0
18
70
18
F0
E0
ENDCHAR
STARTCHAR acute
ENCODING 180
SWIDTH 225 0
DWIDTH 4 0
BBX 4 3 0 9
BITMAP
60
F0
C0
ENDCHAR
STARTCHAR mu
ENCODING 181
SWIDTH 571 0
DWIDTH 10 0
BBX 9 13 1 -4
BITMAP
C380
C380
C380
C380
C380
E380
E780
FF80
FC80
C000
C000
C000
C000
ENDCHAR
STARTCHAR paragraph
ENCODING 182
SWIDTH 808 0
DWIDTH 15 0
BBX 12 13 1 0
BITMAP
0FF0
3FF0
7FF0
E730
C730
C730
C730
E730
7F30
3F30
0730
0730
0730
ENDCHAR
STARTCHAR periodcentered
ENCODING 183
SWIDTH 261 0
DWIDTH 5 0
BBX 3 3 1 5
BITMAP
C0
E0
E0
ENDCHAR
STARTCHAR cedilla
ENCODING 184
SWIDTH 208 0
DWIDTH 4 0
BBX 4 5 0 -4
BITMAP
20
40
70
B0
E0
ENDCHAR
STARTCHAR onesuperior
ENCODING 185
SWIDTH 231 0
DWIDTH 4 0
BBX 2 7 1 6
BITMAP
C0
C0
C0
C0
C0
C0
C0
ENDCHAR
STARTCHAR ordmasculine
ENCODING 186
SWIDTH 432 0
DWIDTH 8 0
BBX 6 9 1 4
BITMAP
30
F8
CC
CC
C8
78
00
FC
FC
ENDCHAR
STARTCHAR guillemotright
ENCODING 187
SWIDTH 703 0
DWIDTH 13 0
BBX 11 9 1 0
BITMAP
4200
E700
7380
39C0
1CE0
39C0
7380
E700
4200
ENDCHAR
STARTCHAR onequarter
ENCODING 188
SWIDTH 648 0
DWIDTH 12 0
BBX 10 13 1 0
BITMAP
E100
E300
6600
6600
6C00
6C00
7800
1E80
3680
2680
67C0
C7C0
C080
ENDCHAR
STARTCHAR onehalf
ENCODING 189
SWIDTH 637 0
DWIDTH 11 0
BBX 10 13 1 0
BITMAP
E100
E300
6600
6600
6C00
6C00
7800
1B80
33C0
23C0
6780
C7C0
C7C0
ENDCHAR
STARTCHAR threequarters
ENCODING 190
SWIDTH 708 0
DWIDTH 13 0
BBX 11 13 1 0
BITMAP
E0C0
F180
1100
F300
1600
F600
EC00
0D60
1B60
1B60
33E0
23E0
6060
ENDCHAR
STARTCHAR questiondown
ENCODING 191
SWIDTH 602 0
DWIDTH 11 0
BBX 9 14 1 -3
BITMAP
0400
0E00
0E00
0000
0E00
0E00
7E00
FC00
E000
C000
C000
FF80
7F80
1F80
ENDCHAR
STARTCHAR Agrave
ENCODING 192
SWIDTH 673 0
DWIDTH 12 0
BBX 10 17 1 0
BITMAP
3800
3C00
0800
0000
0C00
3F00
7F80
E1C0
E1C0
E0C0
E0C0
E0C0
FFC0
FFC0
E0C0
E0C0
E0C0
ENDCHAR
STARTCHAR Aacute
ENCODING 193
SWIDTH 673 0
DWIDTH 12 0
BBX 10 17 1 0
BITMAP
0300
0F00
0400
0000
0C00
3F00
7F80
E1C0
E1C0
E0C0
E0C0
E0C0
FFC0
FFC0
E0C0
E0C0
E0C0
ENDCHAR
STARTCHAR Acircumflex
ENCODING 194
SWIDTH 673 0
DWIDTH 12 0
BBX 10 16 1 0
BITMAP
0C00
1E00
1200
0C00
3F00
7F80
E1C0
E1C0
E0C0
E0C0
E0C0
FFC0
FFC0
E0C0
E0C0
E0C0
ENDCHAR
STARTCHAR Atilde
ENCODING 195
SWIDTH 673 0
DWIDTH 12 0
BBX 10 16 1 0
BITMAP
3F00
3700
3200
0C00
3F00
7F80
E1C0
E1C0
E0C0
E0C0
E0C0
FFC0
FFC0
E0C0
E0C0
E0C0
ENDCHAR
STARTCHAR Adieresis
ENCODING 196
SWIDTH 673 0
DWIDTH 12 0
BBX 10 16 1 0
BITMAP
1200
3B00
0000
0C00
3F00
7F80
E1C0
E1C0
E0C0
E0C0
E0C0
FFC0
FFC0
E0C0
E0C0
E0C0
ENDCHAR
STARTCHAR Aring
ENCODING 197
SWIDTH 673 0
DWIDTH 12 0
BBX 10 15 1 0
BITMAP
1E00
1A00
0C00
3F00
7F80
E1C0
E1C0
E0C0
E0C0
E0C0
FFC0
FFC0
E0C0
E0C0
E0C0
ENDCHAR
STARTCHAR AE
ENCODING 198
SWIDTH 988 0
DWIDTH 18 0
BBX 16 13 1 0
BITMAP
0FFF
3FFF
7FFF
E0C0
E0C0
E0FC
E0FC
E0FC
FFC0
FFC0
E0FF
E0FF
E0FF
ENDCHAR
STARTCHAR Ccedilla
ENCODING 199
SWIDTH 640 0
DWIDTH 12 0
BBX 11 17 0 -4
BITMAP
0780
1FE0
3FE0
7840
7000
6000
E000
6000
6000
7000
3CC0
1FE0
0FC0
0400
0700
0B00
0E00
ENDCHAR
STARTCHAR Egrave
ENCODING 200
SWIDTH 578 0
DWIDTH 10 0
BBX 9 16 1 0
BITMAP
3000
3800
0800
FF80
FF80
FF80
E000
E000
FE00
FE00
FE00
E000
E000
FF80
FF80
FF80
ENDCHAR
STARTCHAR Eacute
ENCODING 201
SWIDTH 578 0
DWIDTH 10 0
BBX 9 17 1 0
BITMAP
0600
0E00
0C00
0000
FF80
FF80
FF80
E000
E000
FE00
FE00
FE00
E000
E000
FF80
FF80
FF80
ENDCHAR
STARTCHAR Ecircumflex
ENCODING 202
SWIDTH 578 0
DWIDTH 10 0
BBX 9 16 1 0
BITMAP
1C00
3E00
1400
FF80
FF80
FF80
E000
E000
FE00
FE00
FE00
E000
E000
FF80
FF80
FF80
ENDCHAR
STARTCHAR Edieresis
ENCODING 203
SWIDTH 578 0
DWIDTH 10 0
BBX 9 16 1 0
BITMAP
3600
3600
0000
FF80
FF80
FF80
E000
E000
FE00
FE00
FE00
E000
E000
FF80
FF80
FF80
ENDCHAR
STARTCHAR Igrave
ENCODING 204
SWIDTH 270 0
DWIDTH 5 0
BBX 4 16 0 0
BITMAP
C0
E0
60
70
70
70
70
70
70
70
70
70
70
70
70
70
ENDCHAR
STARTCHAR Iacute
ENCODING 205
SWIDTH 270 0
DWIDTH 5 0
BBX 4 17 1 0
BITMAP
30
70
40
00
E0
E0
E0
E0
E0
E0
E0
E0
E0
E0
E0
E0
E0
ENDCHAR
STARTCHAR Icircumflex
ENCODING 206
SWIDTH 270 0
DWIDTH 5 0
BBX 5 16 0 0
BITMAP
70
F8
50
70
70
70
70
70
70
70
70
70
70
70
70
70
ENDCHAR
STARTCHAR Idieresis
ENCODING 207
SWIDTH 270 0
DWIDTH 5 0
BBX 5 16 0 0
BITMAP
D8
D8
00
70
70
70
70
70
70
70
70
70
70
70
70
70
ENDCHAR
STARTCHAR Eth
ENCODING 208
SWIDTH 672 0
DWIDTH 12 0
BBX 12 13 0 0
BITMAP
3C00
3F80
3FC0
31E0
30E0
FC60
FC70
FC70
3060
30E0
3FC0
3F80
3F00
ENDCHAR
STARTCHAR Ntilde
ENCODING 209
SWIDTH 689 0
DWIDTH 12 0
BBX 10 16 1 0
BITMAP
3F00
3700
1200
E0C0
F0C0
F0C0
F8C0
F8C0
FCC0
ECC0
EEC0
E7C0
E7C0
E3C0
E1C0
E1C0
ENDCHAR
STARTCHAR Ograve
ENCODING 210
SWIDTH 777 0
DWIDTH 14 0
BBX 14 17 0 0
BITMAP
0C00
0F00
0200
0000
0780
1FE0
3FF0
7878
7038
6018
E01C
6018
6018
7038
3CF0
1FE0
0FC0
ENDCHAR
STARTCHAR Oacute
ENCODING 211
SWIDTH 777 0
DWIDTH 14 0
BBX 14 17 0 0
BITMAP
00C0
03C0
0100
0000
0780
1FE0
3FF0
7878
7038
6018
E01C
6018
6018
7038
3CF0
1FE0
0FC0
ENDCHAR
STARTCHAR Ocircumflex
ENCODING 212
SWIDTH 777 0
DWIDTH 14 0
BBX 14 16 0 0
BITMAP
0300
0780
0480
0780
1FE0
3FF0
7878
7038
6018
E01C
6018
6018
7038
3CF0
1FE0
0FC0
ENDCHAR
STARTCHAR Otilde
ENCODING 213
SWIDTH 777 0
DWIDTH 14 0
BBX 14 16 0 0
BITMAP
0FC0
0FC0
0C80
0780
1FE0
3FF0
7878
7038
6018
E01C
6018
6018
7038
3CF0
1FE0
0FC0
ENDCHAR
STARTCHAR Odieresis
ENCODING 214
SWIDTH 777 0
DWIDTH 14 0
BBX 14 16 0 0
BITMAP
0480
0EC0
0000
0780
1FE0
3FF0
7878
7038
6018
E01C
6018
6018
7038
3CF0
1FE0
0FC0
ENDCHAR
STARTCHAR multiply
ENCODING 215
SWIDTH 479 0
DWIDTH 9 0
BBX 7 7 1 3
BITMAP
44
EE
FC
78
7C
FE
4C
ENDCHAR
STARTCHAR Oslash
ENCODING 216
SWIDTH 777 0
DWIDTH 14 0
BBX 14 13 0 0
BITMAP
07B8
1FF0
3FF0
78F8
71F8
6198
E31C
6718
6E18
7C38
3CF0
3FE0
3FC0
ENDCHAR
STARTCHAR Ugrave
ENCODING 217
SWIDTH 673 0
DWIDTH 12 0
BBX 10 17 1 0
BITMAP
1000
1800
3C00
0C00
E0C0
E0C0
E0C0
E0C0
E0C0
E0C0
E0C0
E0C0
E0C0
E1C0
7F80
7F80
1E00
ENDCHAR
STARTCHAR Uacute
ENCODING 218
SWIDTH 673 0
DWIDTH 12 0
BBX 10 17 1 0
BITMAP
0300
0700
0400
0000
E0C0
E0C0
E0C0
E0C0
E0C0
E0C0
E0C0
E0C0
E0C0
E1C0
7F80
7F80
1E00
ENDCHAR
STARTCHAR Ucircumflex
ENCODING 219
SWIDTH 673 0
DWIDTH 12 0
BBX 10 16 1 0
BITMAP
0C00
1E00
1200
E0C0
E0C0
E0C0
E0C0
E0C0
E0C0
E0C0
E0C0
E0C0
E1C0
7F80
7F80
1E00
ENDCHAR
STARTCHAR Udieresis
ENCODING 220
SWIDTH 673 0
DWIDTH 12 0
BBX 10 16 1 0
BITMAP
1200
3B00
0000
E0C0
E0C0
E0C0
E0C0
E0C0
E0C0
E0C0
E0C0
E0C0
E1C0
7F80
7F80
1E00
ENDCHAR
STARTCHAR Yacute
ENCODING 221
SWIDTH 620 0
DWIDTH 11 0
BBX 10 16 1 0
BITMAP
0600
0E00
0C00
C1C0
C1C0
C1C0
C1C0
C1C0
C180
F380
7F00
3E00
1C00
1C00
1C00
1C00
ENDCHAR
STARTCHAR Thorn
ENCODING 222
SWIDTH 637 0
DWIDTH 11 0
BBX 10 14 1 -1
BITMAP
E000
E000
FF00
FF80
E3C0
E1C0
E0C0
E0C0
E1C0
FF80
FF80
FE00
E000
E000
ENDCHAR
STARTCHAR germandbls
ENCODING 223
SWIDTH 813 0
DWIDTH 15 0
BBX 14 14 0 0
BITMAP
0FC0
3FE0
3870
3070
3070
F3E0
F7C0
3700
37F8
33FC
31FC
300C
33FC
33F8
ENDCHAR
STARTCHAR agrave
ENCODING 224
SWIDTH 607 0
DWIDTH 11 0
BBX 10 14 0 0
BITMAP
1800
1C00
0C00
0000
0E00
3F40
7FC0
61C0
E0C0
E0C0
61C0
73C0
7FC0
1E40
ENDCHAR
STARTCHAR aacute
ENCODING 225
SWIDTH 607 0
DWIDTH 11 0
BBX 10 14 0 0
BITMAP
0300
0700
0400
0000
0E00
3F40
7FC0
61C0
E0C0
E0C0
61C0
73C0
7FC0
1E40
ENDCHAR
STARTCHAR acircumflex
ENCODING 226
SWIDTH 607 0
DWIDTH 11 0
BBX 10 13 0 0
BITMAP
0C00
1E00
0200
0E00
3F40
7FC0
61C0
E0C0
E0C0
61C0
73C0
7FC0
1E40
ENDCHAR
STARTCHAR atilde
ENCODING 227
SWIDTH 607 0
DWIDTH 11 0
BBX 10 13 0 0
BITMAP
3F00
3700
1200
0E00
3F40
7FC0
61C0
E0C0
E0C0
61C0
73C0
7FC0
1E40
ENDCHAR
STARTCHAR adieresis
ENCODING 228
SWIDTH 607 0
DWIDTH 11 0
BBX 10 13 0 0
BITMAP
1300
1B00
0000
0E00
3F40
7FC0
61C0
E0C0
E0C0
61C0
73C0
7FC0
1E40
ENDCHAR
STARTCHAR aring
ENCODING 229
SWIDTH 607 0
DWIDTH 11 0
BBX 10 14 0 0
BITMAP
0C00
0E00
0E00
0C00
0E00
3F40
7FC0
61C0
E0C0
E0C0
61C0
73C0
7FC0
1E40
ENDCHAR
STARTCHAR ae
ENCODING 230
SWIDTH 976 0
DWIDTH 18 0
BBX 17 10 0 0
BITMAP
0E0E00
3F7F80
7FFF80
61F700
E0E600
E0EE00
61FD00
73FB80
7FFF80
1E5F00
ENDCHAR
STARTCHAR ccedilla
ENCODING 231
SWIDTH 521 0
DWIDTH 9 0
BBX 9 14 0 -4
BITMAP
0E00
3F00
7F80
6100
E000
E000
6000
7300
3F80
1F00
0800
0C00
1600
1C00
ENDCHAR
STARTCHAR egrave
ENCODING 232
SWIDTH 524 0
DWIDTH 9 0
BBX 9 14 0 0
BITMAP
1800
3C00
0C00
0000
0E00
3F00
7F80
6700
E600
EC00
7D00
7B80
3F80
1F00
ENDCHAR
STARTCHAR eacute
ENCODING 233
SWIDTH 524 0
DWIDTH 9 0
BBX 9 14 0 0
BITMAP
0300
0700
0400
0000
0E00
3F00
7F80
6700
E600
EC00
7D00
7B80
3F80
1F00
ENDCHAR
STARTCHAR ecircumflex
ENCODING 234
SWIDTH 524 0
DWIDTH 9 0
BBX 9 13 0 0
BITMAP
0C00
1E00
1200
0E00
3F00
7F80
6700
E600
EC00
7D00
7B80
3F80
1F00
ENDCHAR
STARTCHAR edieresis
ENCODING 235
SWIDTH 524 0
DWIDTH 9 0
BBX 9 13 0 0
BITMAP
3200
3600
0000
0E00
3F00
7F80
6700
E600
EC00
7D00
7B80
3F80
1F00
ENDCHAR
STARTCHAR igrave
ENCODING 236
SWIDTH 235 0
DWIDTH 4 0
BBX 4 14 -1 0
BITMAP
40
60
F0
30
00
30
30
30
30
30
30
30
30
30
ENDCHAR
STARTCHAR iacute
ENCODING 237
SWIDTH 235 0
DWIDTH 4 0
BBX 4 13 1 0
BITMAP
30
70
40
00
C0
C0
C0
C0
C0
C0
C0
C0
C0
ENDCHAR
STARTCHAR icircumflex
ENCODING 238
SWIDTH 235 0
DWIDTH 4 0
BBX 4 13 0 0
BITMAP
60
F0
90
00
60
60
60
60
60
60
60
60
60
ENDCHAR
STARTCHAR idieresis
ENCODING 239
SWIDTH 235 0
DWIDTH 4 0
BBX 6 13 -1 0
BITMAP
48
EC
00
00
30
30
30
30
30
30
30
30
30
ENDCHAR
STARTCHAR eth
ENCODING 240
SWIDTH 581 0
DWIDTH 10 0
BBX 10 14 0 0
BITMAP
0E00
3FC0
3FC0
0300
0F80
3F80
7FC0
61C0
E0C0
E0C0
61C0
7380
3F80
1F00
ENDCHAR
STARTCHAR ntilde
ENCODING 241
SWIDTH 562 0
DWIDTH 10 0
BBX 8 13 1 0
BITMAP
7E
6E
64
18
FE
FF
E3
C3
C3
C3
C3
C3
C3
ENDCHAR
STARTCHAR ograve
ENCODING 242
SWIDTH 579 0
DWIDTH 10 0
BBX 10 15 0 0
BITMAP
1000
1800
3C00
0C00
0000
0E00
3F80
7F80
61C0
E0C0
E0C0
61C0
7380
3F80
1F00
ENDCHAR
STARTCHAR oacute
ENCODING 243
SWIDTH 579 0
DWIDTH 10 0
BBX 10 14 0 0
BITMAP
0300
0700
0400
0000
0E00
3F80
7F80
61C0
E0C0
E0C0
61C0
7380
3F80
1F00
ENDCHAR
STARTCHAR ocircumflex
ENCODING 244
SWIDTH 579 0
DWIDTH 10 0
BBX 10 13 0 0
BITMAP
0C00
1E00
1200
0E00
3F80
7F80
61C0
E0C0
E0C0
61C0
7380
3F80
1F00
ENDCHAR
STARTCHAR otilde
ENCODING 245
SWIDTH 579 0
DWIDTH 10 0
BBX 10 13 0 0
BITMAP
3F00
3700
1200
0E00
3F80
7F80
61C0
E0C0
E0C0
61C0
7380
3F80
1F00
ENDCHAR
STARTCHAR odieresis
ENCODING 246
SWIDTH 579 0
DWIDTH 10 0
BBX 10 13 0 0
BITMAP
1200
3B00
0000
0E00
3F80
7F80
61C0
E0C0
E0C0
61C0
7380
3F80
1F00
ENDCHAR
STARTCHAR divide
ENCODING 247
SWIDTH 494 0
DWIDTH 9 0
BBX 7 9 1 2
BITMAP
10
38
10
FE
FE
FE
10
38
10
ENDCHAR
STARTCHAR oslash
ENCODING 248
SWIDTH 579 0
DWIDTH 10 0
BBX 10 10 0 0
BITMAP
0EC0
3F80
7F80
67C0
E6C0
ECC0
7DC0
7B80
3F80
7F00
ENDCHAR
STARTCHAR ugrave
ENCODING 249
SWIDTH 562 0
DWIDTH 10 0
BBX 8 13 1 0
BITMAP
70
78
10
00
C3
C3
C3
C3
C3
C3
E7
7F
3D
ENDCHAR
STARTCHAR uacute
ENCODING 250
SWIDTH 562 0
DWIDTH 10 0
BBX 8 13 1 0
BITMAP
0E
1E
08
00
C3
C3
C3
C3
C3
C3
E7
7F
3D
ENDCHAR
STARTCHAR ucircumflex
ENCODING 251
SWIDTH 562 0
DWIDTH 10 0
BBX 8 13 1 0
BITMAP
18
3C
24
00
C3
C3
C3
C3
C3
C3
E7
7F
3D
ENDCHAR
STARTCHAR udieresis
ENCODING 252
SWIDTH 562 0
DWIDTH 10 0
BBX 8 13 1 0
BITMAP
24
76
00
00
C3
C3
C3
C3
C3
C3
E7
7F
3D
ENDCHAR
STARTCHAR yacute
ENCODING 253
SWIDTH 562 0
DWIDTH 10 0
BBX 8 17 1 -4
BITMAP
0C
1E
08
00
C3
C3
C3
C3
C3
C3
E7
7F
3F
07
3E
3C
30
ENDCHAR
STARTCHAR thorn
ENCODING 254
SWIDTH 608 0
DWIDTH 11 0
BBX 10 17 1 -4
BITMAP
C000
C000
C000
DC00
FF00
FF80
E180
C1C0
C1C0
E180
F380
FF00
DE00
C000
C000
C000
C000
ENDCHAR
STARTCHAR ydieresis
ENCODING 255
SWIDTH 562 0
DWIDTH 10 0
BBX 8 17 1 -4
BITMAP
24
76
00
00
C3
C3
C3
C3
C3
C3
E7
7F
3F
07
3E
3C
30
ENDCHAR
STARTCHAR Amacron
ENCODING 256
SWIDTH 673 0
DWIDTH 12 0
BBX 10 15 1 0
BITMAP
1E00
0000
0C00
3F00
7F80
E1C0
E1C0
E0C0
E0C0
E0C0
FFC0
FFC0
E0C0
E0C0
E0C0
ENDCHAR
STARTCHAR amacron
ENCODING 257
SWIDTH 607 0
DWIDTH 11 0
BBX 10 12 0 0
BITMAP
1E00
0000
0E00
3F40
7FC0
61C0
E0C0
E0C0
61C0
73C0
7FC0
1E40
ENDCHAR
STARTCHAR Abreve
ENCODING 258
SWIDTH 673 0
DWIDTH 12 0
BBX 10 16 1 0
BITMAP
1E00
1E00
0000
0C00
3F00
7F80
E1C0
E1C0
E0C0
E0C0
E0C0
FFC0
FFC0
E0C0
E0C0
E0C0
ENDCHAR
STARTCHAR abreve
ENCODING 259
SWIDTH 607 0
DWIDTH 11 0
BBX 10 13 0 0
BITMAP
1E00
1E00
0000
0E00
3F40
7FC0
61C0
E0C0
E0C0
61C0
73C0
7FC0
1E40
ENDCHAR
STARTCHAR Aogonek
ENCODING 260
SWIDTH 673 0
DWIDTH 12 0
BBX 11 16 1 -3
BITMAP
0C00
3F00
7F80
E1C0
E1C0
E0C0
E0C0
E0C0
FFC0
FFC0
E0C0
E0C0
E0C0
0180
01C0
01E0
ENDCHAR
STARTCHAR aogonek
ENCODING 261
SWIDTH 607 0
DWIDTH 11 0
BBX 11 13 0 -3
BITMAP
0E00
3F40
7FC0
61C0
E0C0
E0C0
61C0
73C0
7FC0
1E40
00C0
00E0
00E0
ENDCHAR
STARTCHAR Cacute
ENCODING 262
SWIDTH 640 0
DWIDTH 12 0
BBX 11 17 0 0
BITMAP
0180
0380
0300
0000
0780
1FE0
3FE0
7840
7000
6000
E000
6000
6000
7000
3CC0
1FE0
0FC0
ENDCHAR
STARTCHAR cacute
ENCODING 263
SWIDTH 521 0
DWIDTH 9 0
BBX 9 14 0 0
BITMAP
0600
0F00
0C00
0000
0E00
3F00
7F80
6100
E000
E000
6000
7300
3F80
1F00
ENDCHAR
STARTCHAR Ccircumflex
ENCODING 264
SWIDTH 640 0
DWIDTH 12 0
BBX 11 16 0 0
BITMAP
0300
0F80
0400
0780
1FE0
3FE0
7840
7000
6000
E000
6000
6000
7000
3CC0
1FE0
0FC0
ENDCHAR
STARTCHAR ccircumflex
ENCODING 265
SWIDTH 521 0
DWIDTH 9 0
BBX 9 13 0 0
BITMAP
0C00
1E00
1200
0E00
3F00
7F80
6100
E000
E000
6000
7300
3F80
1F00
ENDCHAR
STARTCHAR Cdotaccent
ENCODING 266
SWIDTH 640 0
DWIDTH 12 0
BBX 11 16 0 0
BITMAP
0300
0300
0000
0780
1FE0
3FE0
7840
7000
6000
E000
6000
6000
7000
3CC0
1FE0
0FC0
ENDCHAR
STARTCHAR cdotaccent
ENCODING 267
SWIDTH 521 0
DWIDTH 9 0
BBX 9 13 0 0
BITMAP
0C00
0C00
0000
0E00
3F00
7F80
6100
E000
E000
6000
7300
3F80
1F00
ENDCHAR
STARTCHAR Ccaron
ENCODING 268
SWIDTH 640 0
DWIDTH 12 0
BBX 11 17 0 0
BITMAP
0400
0780
0300
0000
0780
1FE0
3FE0
7840
7000
6000
E000
6000
6000
7000
3CC0
1FE0
0FC0
ENDCHAR
STARTCHAR ccaron
ENCODING 269
SWIDTH 521 0
DWIDTH 9 0
BBX 9 14 0 0
BITMAP
0200
1F00
0E00
0400
0E00
3F00
7F80
6100
E000
E000
6000
7300
3F80
1F00
ENDCHAR
STARTCHAR Dcaron
ENCODING 270
SWIDTH 653 0
DWIDTH 12 0
BBX 10 17 1 0
BITMAP
1000
1E00
0C00
0000
F800
FF00
FF80
E380
E1C0
E0C0
E0C0
E0C0
E1C0
E1C0
FF80
FF00
FC00
ENDCHAR
STARTCHAR dcaron
ENCODING 271
SWIDTH 740 0
DWIDTH 13 0
BBX 13 13 0 0
BITMAP
00C8
00D8
00D8
0EC8
3FC0
7FC0
61C0
E1C0
E0C0
61C0
73C0
3FC0
1E40
ENDCHAR
STARTCHAR Dcroat
ENCODING 272
SWIDTH 672 0
DWIDTH 12 0
BBX 12 13 0 0
BITMAP
3C00
3F80
3FC0
31E0
30E0
FC60
FC70
FC70
3060
30E0
3FC0
3F80
3F00
ENDCHAR
STARTCHAR dcroat
ENCODING 273
SWIDTH 606 0
DWIDTH 11 0
BBX 11 13 0 0
BITMAP
01E0
01E0
01E0
0EC0
3FC0
7FC0
61C0
E1C0
E0C0
61C0
73C0
3FC0
1E40
ENDCHAR
STARTCHAR Emacron
ENCODING 274
SWIDTH 578 0
DWIDTH 10 0
BBX 9 15 1 0
BITMAP
3E00
0000
FF80
FF80
FF80
E000
E000
FE00
FE00
FE00
E000
E000
FF80
FF80
FF80
ENDCHAR
STARTCHAR emacron
ENCODING 275
SWIDTH 524 0
DWIDTH 9 0
BBX 9 12 0 0
BITMAP
1E00
0000
0E00
3F00
7F80
6700
E600
EC00
7D00
7B80
3F80
1F00
ENDCHAR
STARTCHAR Ebreve
ENCODING 276
SWIDTH 578 0
DWIDTH 10 0
BBX 9 16 1 0
BITMAP
3400
1C00
0000
FF80
FF80
FF80
E000
E000
FE00
FE00
FE00
E000
E000
FF80
FF80
FF80
ENDCHAR
STARTCHAR ebreve
ENCODING 277
SWIDTH 524 0
DWIDTH 9 0
BBX 9 13 0 0
BITMAP
1E00
1E00
0000
0E00
3F00
7F80
6700
E600
EC00
7D00
7B80
3F80
1F00
ENDCHAR
STARTCHAR Edotaccent
ENCODING 278
SWIDTH 578 0
DWIDTH 10 0
BBX 9 16 1 0
BITMAP
0800
1C00
0000
FF80
FF80
FF80
E000
E000
FE00
FE00
FE00
E000
E000
FF80
FF80
FF80
ENDCHAR
STARTCHAR edotaccent
ENCODING 279
SWIDTH 524 0
DWIDTH 9 0
BBX 9 13 0 0
BITMAP
0C00
0C00
0000
0E00
3F00
7F80
6700
E600
EC00
7D00
7B80
3F80
1F00
ENDCHAR
STARTCHAR Eogonek
ENCODING 280
SWIDTH 578 0
DWIDTH 10 0
BBX 9 16 1 -3
BITMAP
FF80
FF80
FF80
E000
E000
FE00
FE00
FE00
E000
E000
FF80
FF80
FF80
0600
0700
0780
ENDCHAR
STARTCHAR eogonek
ENCODING 281
SWIDTH 524 0
DWIDTH 9 0
BBX 9 13 0 -3
BITMAP
0E00
3F00
7F80
6700
E600
EC00
7D00
7B80
3F80
1F00
0600
0700
0700
ENDCHAR
STARTCHAR Ecaron
ENCODING 282
SWIDTH 578 0
DWIDTH 10 0
BBX 9 16 1 0
BITMAP
3600
1C00
0800
FF80
FF80
FF80
E000
E000
FE00
FE00
FE00
E000
E000
FF80
FF80
FF80
ENDCHAR
STARTCHAR ecaron
ENCODING 283
SWIDTH 524 0
DWIDTH 9 0
BBX 9 14 0 0
BITMAP
0200
1E00
0C00
0000
0E00
3F00
7F80
6700
E600
EC00
7D00
7B80
3F80
1F00
ENDCHAR
STARTCHAR Gcircumflex
ENCODING 284
SWIDTH 665 0
DWIDTH 12 0
BBX 11 16 0 0
BITMAP
0300
0780
0400
0780
1FE0
3FE0
7840
7000
6000
E000
6060
6060
7060
3CE0
1FE0
0FC0
ENDCHAR
STARTCHAR gcircumflex
ENCODING 285
SWIDTH 607 0
DWIDTH 11 0
BBX 10 17 0 -4
BITMAP
0C00
1E00
1200
0E00
3F40
7FC0
61C0
E0C0
E0C0
61C0
73C0
3FC0
1EC0
01C0
0F80
0F00
0C00
ENDCHAR
STARTCHAR Gbreve
ENCODING 286
SWIDTH 665 0
DWIDTH 12 0
BBX 11 16 0 0
BITMAP
0580
0780
0000
0780
1FE0
3FE0
7840
7000
6000
E000
6060
6060
7060
3CE0
1FE0
0FC0
ENDCHAR
STARTCHAR gbreve
ENCODING 287
SWIDTH 607 0
DWIDTH 11 0
BBX 10 17 0 -4
BITMAP
1A00
1E00
0000
0E00
3F40
7FC0
61C0
E0C0
E0C0
61C0
73C0
3FC0
1EC0
01C0
0F80
0F00
0C00
ENDCHAR
STARTCHAR Gdotaccent
ENCODING 288
SWIDTH 665 0
DWIDTH 12 0
BBX 11 16 0 0
BITMAP
0300
0300
0000
0780
1FE0
3FE0
7840
7000
6000
E000
6060
6060
7060
3CE0
1FE0
0FC0
ENDCHAR
STARTCHAR gdotaccent
ENCODING 289
SWIDTH 607 0
DWIDTH 11 0
BBX 10 17 0 -4
BITMAP
0C00
0C00
0000
0E00
3F40
7FC0
61C0
E0C0
E0C0
61C0
73C0
3FC0
1EC0
01C0
0F80
0F00
0C00
ENDCHAR
STARTCHAR Gcommaaccent
ENCODING 290
SWIDTH 665 0
DWIDTH 12 0
BBX 11 17 0 -4
BITMAP
0780
1FE0
3FE0
7840
7000
6000
E000
6060
6060
7060
3CE0
1FE0
0FC0
0000
0300
0300
0300
ENDCHAR
STARTCHAR gcommaaccent
ENCODING 291
SWIDTH 607 0
DWIDTH 11 0
BBX 10 18 0 -4
BITMAP
0C00
0C00
0C00
0000
0E00
3F40
7FC0
61C0
E0C0
E0C0
61C0
73C0
3FC0
1EC0
01C0
0F80
0F00
0C00
ENDCHAR
STARTCHAR Hcircumflex
ENCODING 292
SWIDTH 689 0
DWIDTH 12 0
BBX 10 16 1 0
BITMAP
0C00
1E00
0200
E0C0
E0C0
E0C0
E0C0
E0C0
FFC0
FFC0
FFC0
E0C0
E0C0
E0C0
E0C0
E0C0
ENDCHAR
STARTCHAR hcircumflex
ENCODING 293
SWIDTH 562 0
DWIDTH 10 0
BBX 8 13 1 0
BITMAP
CC
DE
D2
D8
FE
FF
E3
C3
C3
C3
C3
C3
C3
ENDCHAR
STARTCHAR Hbar
ENCODING 294
SWIDTH 689 0
DWIDTH 12 0
BBX 12 13 0 0
BITMAP
7060
7060
FFF0
FFF0
7060
7FE0
7FE0
7FE0
7060
7060
7060
7060
7060
ENDCHAR
STARTCHAR hbar
ENCODING 295
SWIDTH 562 0
DWIDTH 10 0
BBX 9 13 0 0
BITMAP
F000
F000
F000
6C00
7F00
7F80
7180
6180
6180
6180
6180
6180
6180
ENDCHAR
STARTCHAR Itilde
ENCODING 296
SWIDTH 270 0
DWIDTH 5 0
BBX 5 16 0 0
BITMAP
E8
F8
90
70
70
70
70
70
70
70
70
70
70
70
70
70
ENDCHAR
STARTCHAR itilde
ENCODING 297
SWIDTH 235 0
DWIDTH 4 0
BBX 6 13 -1 0
BITMAP
FC
DC
C8
00
30
30
30
30
30
30
30
30
30
ENDCHAR
STARTCHAR Imacron
ENCODING 298
SWIDTH 270 0
DWIDTH 5 0
BBX 5 15 0 0
BITMAP
F8
00
70
70
70
70
70
70
70
70
70
70
70
70
70
ENDCHAR
STARTCHAR imacron
ENCODING 299
SWIDTH 235 0
DWIDTH 4 0
BBX 4 12 0 0
BITMAP
F0
00
00
60
60
60
60
60
60
60
60
60
ENDCHAR
STARTCHAR Ibreve
ENCODING 300
SWIDTH 270 0
DWIDTH 5 0
BBX 4 16 0 0
BITMAP
D0
70
00
70
70
70
70
70
70
70
70
70
70
70
70
70
ENDCHAR
STARTCHAR ibreve
ENCODING 301
SWIDTH 235 0
DWIDTH 4 0
BBX 4 12 0 0
BITMAP
D0
F0
00
60
60
60
60
60
60
60
60
60
ENDCHAR
STARTCHAR Iogonek
ENCODING 302
SWIDTH 270 0
DWIDTH 5 0
BBX 3 16 1 -3
BITMAP
E0
E0
E0
E0
E0
E0
E0
E0
E0
E0
E0
E0
E0
C0
A0
E0
ENDCHAR
STARTCHAR iogonek
ENCODING 303
SWIDTH 235 0
DWIDTH 4 0
BBX 4 17 0 -3
BITMAP
20
70
70
60
00
60
60
60
60
60
60
60
60
60
40
C0
70
ENDCHAR
STARTCHAR Idotaccent
ENCODING 304
SWIDTH 270 0
DWIDTH 5 0
BBX 3 16 1 0
BITMAP
40
E0
00
E0
E0
E0
E0
E0
E0
E0
E0
E0
E0
E0
E0
E0
ENDCHAR
STARTCHAR dotlessi
ENCODING 305
SWIDTH 235 0
DWIDTH 4 0
BBX 2 9 1 0
BITMAP
C0
C0
C0
C0
C0
C0
C0
C0
C0
ENDCHAR
STARTCHAR IJ
ENCODING 306
SWIDTH 687 0
DWIDTH 12 0
BBX 10 13 1 0
BITMAP
E0C0
E0C0
E0C0
E0C0
E0C0
E0C0
E0C0
E0C0
E0C0
E1C0
EFC0
EF80
EE00
ENDCHAR
STARTCHAR ij
ENCODING 307
SWIDTH 474 0
DWIDTH 9 0
BBX 7 18 1 -4
BITMAP
44
EE
EE
C4
00
CE
CE
CE
CE
CE
CE
CE
CE
CE
1C
7C
78
60
ENDCHAR
STARTCHAR Jcircumflex
ENCODING 308
SWIDTH 416 0
DWIDTH 8 0
BBX 7 16 0 0
BITMAP
0C
1E
12
0C
0C
0C
0C
0C
0C
0C
0C
0C
1C
FC
F8
F0
ENDCHAR
STARTCHAR jcircumflex
ENCODING 309
SWIDTH 237 0
DWIDTH 4 0
BBX 7 17 -3 -4
BITMAP
0C
1E
12
00
0C
0C
0C
0C
0C
0C
0C
0C
0C
1C
FC
F8
E0
ENDCHAR
STARTCHAR Kcommaaccent
ENCODING 310
SWIDTH 625 0
DWIDTH 11 0
BBX 10 17 1 -4
BITMAP
E1C0
E180
E380
E700
EE00
EC00
FE00
FE00
F700
E700
E380
E180
E1C0
0000
0C00
1C00
0C00
ENDCHAR
STARTCHAR kcommaaccent
ENCODING 311
SWIDTH 539 0
DWIDTH 10 0
BBX 8 17 1 -4
BITMAP
C0
C0
C0
C0
C7
CE
CC
DC
FC
FE
E6
E7
C3
00
18
18
08
ENDCHAR
STARTCHAR kgreenlandic
ENCODING 312
SWIDTH 539 0
DWIDTH 10 0
BBX 8 9 1 0
BITMAP
C7
CE
CC
DC
FC
FE
E6
E7
C3
ENDCHAR
STARTCHAR Lacute
ENCODING 313
SWIDTH 562 0
DWIDTH 10 0
BBX 9 15 1 0
BITMAP
0C00
1C00
F800
E000
E000
E000
E000
E000
E000
E000
E000
E000
FF80
FF80
FF80
ENDCHAR
STARTCHAR lacute
ENCODING 314
SWIDTH 235 0
DWIDTH 4 0
BBX 4 17 1 0
BITMAP
30
70
60
00
C0
C0
C0
C0
C0
C0
C0
C0
C0
C0
C0
C0
C0
ENDCHAR
STARTCHAR Lcommaaccent
ENCODING 315
SWIDTH 562 0
DWIDTH 10 0
BBX 9 17 1 -4
BITMAP
E000
E000
E000
E000
E000
E000
E000
E000
E000
E000
FF80
FF80
FF80
0000
1800
1800
0800
ENDCHAR
STARTCHAR lcommaaccent
ENCODING 316
SWIDTH 235 0
DWIDTH 4 0
BBX 2 17 1 -4
BITMAP
C0
C0
C0
C0
C0
C0
C0
C0
C0
C0
C0
C0
C0
00
C0
C0
40
ENDCHAR
STARTCHAR Lcaron
ENCODING 317
SWIDTH 562 0
DWIDTH 10 0
BBX 9 13 1 0
BITMAP
E800
EC00
EC00
EC00
E000
E000
E000
E000
E000
E000
FF80
FF80
FF80
ENDCHAR
STARTCHAR lcaron
ENCODING 318
SWIDTH 369 0
DWIDTH 7 0
BBX 6 13 1 0
BITMAP
C8
DC
CC
C8
C0
C0
C0
C0
C0
C0
C0
C0
C0
ENDCHAR
STARTCHAR Ldot
ENCODING 319
SWIDTH 745 0
DWIDTH 13 0
BBX 12 13 1 0
BITMAP
E000
E000
E000
E000
E000
E060
E070
E060
E000
E000
FF80
FF80
FF80
ENDCHAR
STARTCHAR ldotaccent
ENCODING 320
SWIDTH 463 0
DWIDTH 8 0
BBX 6 13 1 0
BITMAP
C0
C0
C0
C0
C0
CC
CC
CC
C0
C0
C0
C0
C0
ENDCHAR
STARTCHAR Lslash
ENCODING 321
SWIDTH 585 0
DWIDTH 11 0
BBX 10 13 0 0
BITMAP
3000
3000
3000
3000
3400
3C00
7800
F000
F000
3000
3FC0
3FC0
3FC0
ENDCHAR
STARTCHAR lslash
ENCODING 322
SWIDTH 319 0
DWIDTH 6 0
BBX 6 13 0 0
BITMAP
30
30
30
30
34
3C
78
F0
F0
30
30
30
30
ENDCHAR
STARTCHAR Nacute
ENCODING 323
SWIDTH 689 0
DWIDTH 12 0
BBX 10 16 1 0
BITMAP
0300
0700
0400
E0C0
F0C0
F0C0
F8C0
F8C0
FCC0
ECC0
EEC0
E7C0
E7C0
E3C0
E1C0
E1C0
ENDCHAR
STARTCHAR nacute
ENCODING 324
SWIDTH 562 0
DWIDTH 10 0
BBX 8 14 1 0
BITMAP
06
0E
0C
00
18
FE
FF
E3
C3
C3
C3
C3
C3
C3
ENDCHAR
STARTCHAR Ncommaaccent
ENCODING 325
SWIDTH 689 0
DWIDTH 12 0
BBX 10 17 1 -4
BITMAP
E0C0
F0C0
F0C0
F8C0
F8C0
FCC0
ECC0
EEC0
E7C0
E7C0
E3C0
E1C0
E1C0
0000
0C00
0C00
0400
ENDCHAR
STARTCHAR ncommaaccent
ENCODING 326
SWIDTH 562 0
DWIDTH 10 0
BBX 8 14 1 -4
BITMAP
18
FE
FF
E3
C3
C3
C3
C3
C3
C3
00
18
18
08
ENDCHAR
STARTCHAR Ncaron
ENCODING 327
SWIDTH 689 0
DWIDTH 12 0
BBX 10 17 1 0
BITMAP
0200
1F00
0E00
0400
E0C0
F0C0
F0C0
F8C0
F8C0
FCC0
ECC0
EEC0
E7C0
E7C0
E3C0
E1C0
E1C0
ENDCHAR
STARTCHAR ncaron
ENCODING 328
SWIDTH 562 0
DWIDTH 10 0
BBX 8 14 1 0
BITMAP
24
3C
18
00
18
FE
FF
E3
C3
C3
C3
C3
C3
C3
ENDCHAR
STARTCHAR napostrophe
ENCODING 329
SWIDTH 694 0
DWIDTH 13 0
BBX 12 13 0 0
BITMAP
4000
C000
C000
4100
1FC0
1FE0
1C70
1C70
1C70
1C70
1C70
1C70
1C70
ENDCHAR
STARTCHAR Eng
ENCODING 330
SWIDTH 689 0
DWIDTH 12 0
BBX 10 17 1 -4
BITMAP
E0C0
F0C0
F0C0
F8C0
F8C0
FCC0
ECC0
EEC0
E7C0
E7C0
E3C0
E1C0
E1C0
01C0
0F80
0F00
0C00
ENDCHAR
STARTCHAR eng
ENCODING 331
SWIDTH 562 0
DWIDTH 10 0
BBX 8 14 1 -4
BITMAP
18
FE
FF
E3
C3
C3
C3
C3
C3
C3
07
3E
3E
30
ENDCHAR
STARTCHAR Omacron
ENCODING 332
SWIDTH 777 0
DWIDTH 14 0
BBX 14 15 0 0
BITMAP
0780
0000
0780
1FE0
3FF0
7878
7038
6018
E01C
6018
6018
7038
3CF0
1FE0
0FC0
ENDCHAR
STARTCHAR omacron
ENCODING 333
SWIDTH 579 0
DWIDTH 10 0
BBX 10 12 0 0
BITMAP
1E00
0000
0E00
3F80
7F80
61C0
E0C0
E0C0
61C0
7380
3F80
1F00
ENDCHAR
STARTCHAR Obreve
ENCODING 334
SWIDTH 777 0
DWIDTH 14 0
BBX 14 16 0 0
BITMAP
0780
0780
0000
0780
1FE0
3FF0
7878
7038
6018
E01C
6018
6018
7038
3CF0
1FE0
0FC0
ENDCHAR
STARTCHAR obreve
ENCODING 335
SWIDTH 579 0
DWIDTH 10 0
BBX 10 13 0 0
BITMAP
1A00
0E00
0000
0E00
3F80
7F80
61C0
E0C0
E0C0
61C0
7380
3F80
1F00
ENDCHAR
STARTCHAR Ohungarumlaut
ENCODING 336
SWIDTH 777 0
DWIDTH 14 0
BBX 14 17 0 0
BITMAP
0340
07E0
06C0
0080
0780
1FE0
3FF0
7878
7038
6018
E01C
6018
6018
7038
3CF0
1FE0
0FC0
ENDCHAR
STARTCHAR ohungarumlaut
ENCODING 337
SWIDTH 579 0
DWIDTH 10 0
BBX 10 14 0 0
BITMAP
0D00
1DC0
1B00
0200
0E00
3F80
7F80
61C0
E0C0
E0C0
61C0
7380
3F80
1F00
ENDCHAR
STARTCHAR OE
ENCODING 338
SWIDTH 1125 0
DWIDTH 20 0
BBX 20 13 0 0
BITMAP
079FF0
1FFFF0
3FFFF0
787C00
703C00
601FC0
E01FC0
601FC0
601C00
703C00
3CFFF0
1FFFF0
0FDFF0
ENDCHAR
STARTCHAR oe
ENCODING 339
SWIDTH 924 0
DWIDTH 17 0
BBX 16 10 0 0
BITMAP
0E1C
3FFF
7FFF
61E6
E0CE
E0DC
61F8
73F3
3FFF
1F3E
ENDCHAR
STARTCHAR Racute
ENCODING 340
SWIDTH 651 0
DWIDTH 12 0
BBX 10 16 1 0
BITMAP
0600
0E00
0C00
FC00
FF00
FF80
E1C0
E0C0
E0C0
E1C0
E1C0
FF80
FF00
E300
E380
E380
ENDCHAR
STARTCHAR racute
ENCODING 341
SWIDTH 414 0
DWIDTH 7 0
BBX 6 14 1 0
BITMAP
08
18
3C
30
00
BC
FC
E0
C0
C0
C0
C0
C0
C0
ENDCHAR
STARTCHAR Rcommaaccent
ENCODING 342
SWIDTH 651 0
DWIDTH 12 0
BBX 10 17 1 -4
BITMAP
FC00
FF00
FF80
E1C0
E0C0
E0C0
E1C0
E1C0
FF80
FF00
E300
E380
E380
0000
0C00
0C00
0400
ENDCHAR
STARTCHAR rcommaaccent
ENCODING 343
SWIDTH 414 0
DWIDTH 7 0
BBX 6 13 1 -4
BITMAP
BC
FC
E0
C0
C0
C0
C0
C0
C0
00
C0
C0
40
ENDCHAR
STARTCHAR Rcaron
ENCODING 344
SWIDTH 651 0
DWIDTH 12 0
BBX 10 17 1 0
BITMAP
1000
3E00
0C00
0000
FC00
FF00
FF80
E1C0
E0C0
E0C0
E1C0
E1C0
FF80
FF00
E300
E380
E380
ENDCHAR
STARTCHAR rcaron
ENCODING 345
SWIDTH 414 0
DWIDTH 7 0
BBX 6 14 1 0
BITMAP
40
F8
70
20
00
BC
FC
E0
C0
C0
C0
C0
C0
C0
ENDCHAR
STARTCHAR Sacute
ENCODING 346
SWIDTH 610 0
DWIDTH 11 0
BBX 11 17 0 0
BITMAP
0300
0700
0600
0000
1FC0
3FC0
7FC0
E000
E000
7E00
7F80
3FC0
00C0
00E0
7FC0
7FC0
7F80
ENDCHAR
STARTCHAR sacute
ENCODING 347
SWIDTH 523 0
DWIDTH 9 0
BBX 8 13 1 0
BITMAP
0E
1E
08
00
FE
FE
C0
FC
FF
3F
07
FF
FE
ENDCHAR
STARTCHAR Scircumflex
ENCODING 348
SWIDTH 610 0
DWIDTH 11 0
BBX 11 17 0 0
BITMAP
0400
0E00
1F00
0A00
1FC0
3FC0
7FC0
E000
E000
7E00
7F80
3FC0
00C0
00E0
7FC0
7FC0
7F80
ENDCHAR
STARTCHAR scircumflex
ENCODING 349
SWIDTH 523 0
DWIDTH 9 0
BBX 8 13 1 0
BITMAP
18
3C
20
00
FE
FE
C0
FC
FF
3F
07
FF
FE
ENDCHAR
STARTCHAR Scedilla
ENCODING 350
SWIDTH 610 0
DWIDTH 11 0
BBX 11 17 0 -4
BITMAP
1FC0
3FC0
7FC0
E000
E000
7E00
7F80
3FC0
00C0
00E0
7FC0
7FC0
7F80
0400
0600
0E00
0E00
ENDCHAR
STARTCHAR scedilla
ENCODING 351
SWIDTH 523 0
DWIDTH 9 0
BBX 8 13 1 -4
BITMAP
FE
FE
C0
FC
FF
3F
07
FF
FE
10
18
2C
38
ENDCHAR
STARTCHAR Scaron
ENCODING 352
SWIDTH 610 0
DWIDTH 11 0
BBX 11 16 0 0
BITMAP
1B00
0E00
0400
1FC0
3FC0
7FC0
E000
E000
7E00
7F80
3FC0
00C0
00E0
7FC0
7FC0
7F80
ENDCHAR
STARTCHAR scaron
ENCODING 353
SWIDTH 523 0
DWIDTH 9 0
BBX 8 14 1 0
BITMAP
20
3C
18
00
00
FE
FE
C0
FC
FF
3F
07
FF
FE
ENDCHAR
STARTCHAR Tcommaaccent
ENCODING 354
SWIDTH 578 0
DWIDTH 10 0
BBX 10 17 0 -4
BITMAP
FFC0
FFC0
FFC0
0C00
0C00
0C00
0C00
0C00
0C00
0C00
0C00
0C00
0C00
0000
0C00
0C00
0400
ENDCHAR
STARTCHAR tcommaaccent
ENCODING 355
SWIDTH 437 0
DWIDTH 8 0
BBX 7 17 0 -4
BITMAP
70
70
70
70
FE
FE
70
70
70
70
38
3E
0E
00
18
18
08
ENDCHAR
STARTCHAR Tcaron
ENCODING 356
SWIDTH 578 0
DWIDTH 10 0
BBX 10 17 0 0
BITMAP
0200
1F00
0E00
0400
FFC0
FFC0
FFC0
0C00
0C00
0C00
0C00
0C00
0C00
0C00
0C00
0C00
0C00
ENDCHAR
STARTCHAR tcaron
ENCODING 357
SWIDTH 570 0
DWIDTH 10 0
BBX 10 13 0 0
BITMAP
7040
70C0
70C0
7040
FE00
FE00
7000
7000
7000
7000
3800
3E00
0E00
ENDCHAR
STARTCHAR Tbar
ENCODING 358
SWIDTH 578 0
DWIDTH 10 0
BBX 10 13 0 0
BITMAP
FFC0
FFC0
FFC0
0C00
0C00
0C00
3F00
3F00
3F00
0C00
0C00
0C00
0C00
ENDCHAR
STARTCHAR tbar
ENCODING 359
SWIDTH 437 0
DWIDTH 8 0
BBX 7 13 0 0
BITMAP
70
70
70
70
FE
FE
70
FC
FC
70
38
3E
0E
ENDCHAR
STARTCHAR Utilde
ENCODING 360
SWIDTH 673 0
DWIDTH 12 0
BBX 10 16 1 0
BITMAP
3F00
3700
3200
E0C0
E0C0
E0C0
E0C0
E0C0
E0C0
E0C0
E0C0
E0C0
E1C0
7F80
7F80
1E00
ENDCHAR
STARTCHAR utilde
ENCODING 361
SWIDTH 562 0
DWIDTH 10 0
BBX 8 13 1 0
BITMAP
7E
7E
64
00
C3
C3
C3
C3
C3
C3
E7
7F
3D
ENDCHAR
STARTCHAR Umacron
ENCODING 362
SWIDTH 673 0
DWIDTH 12 0
BBX 10 15 1 0
BITMAP
1E00
0000
E0C0
E0C0
E0C0
E0C0
E0C0
E0C0
E0C0
E0C0
E0C0
E1C0
7F80
7F80
1E00
ENDCHAR
STARTCHAR umacron
ENCODING 363
SWIDTH 562 0
DWIDTH 10 0
BBX 8 12 1 0
BITMAP
3C
00
00
C3
C3
C3
C3
C3
C3
E7
7F
3D
ENDCHAR
STARTCHAR Ubreve
ENCODING 364
SWIDTH 673 0
DWIDTH 12 0
BBX 10 15 1 0
BITMAP
1A00
1E00
E0C0
E0C0
E0C0
E0C0
E0C0
E0C0
E0C0
E0C0
E0C0
E1C0
7F80
7F80
1E00
ENDCHAR
STARTCHAR ubreve
ENCODING 365
SWIDTH 562 0
DWIDTH 10 0
BBX 8 12 1 0
BITMAP
3C
3C
00
C3
C3
C3
C3
C3
C3
E7
7F
3D
ENDCHAR
STARTCHAR Uring
ENCODING 366
SWIDTH 673 0
DWIDTH 12 0
BBX 10 17 1 0
BITMAP
0C00
1E00
1E00
0C00
E0C0
E0C0
E0C0
E0C0
E0C0
E0C0
E0C0
E0C0
E0C0
E1C0
7F80
7F80
1E00
ENDCHAR
STARTCHAR uring
ENCODING 367
SWIDTH 562 0
DWIDTH 10 0
BBX 8 14 1 0
BITMAP
18
3C
3C
18
00
C3
C3
C3
C3
C3
C3
E7
7F
3D
ENDCHAR
STARTCHAR Uhungarumlaut
ENCODING 368
SWIDTH 673 0
DWIDTH 12 0
BBX 10 17 1 0
BITMAP
0D00
1F80
1B00
0200
E0C0
E0C0
E0C0
E0C0
E0C0
E0C0
E0C0
E0C0
E0C0
E1C0
7F80
7F80
1E00
ENDCHAR
STARTCHAR uhungarumlaut
ENCODING 369
SWIDTH 562 0
DWIDTH 10 0
BBX 8 14 1 0
BITMAP
1A
3F
36
04
00
C3
C3
C3
C3
C3
C3
E7
7F
3D
ENDCHAR
STARTCHAR Uogonek
ENCODING 370
SWIDTH 673 0
DWIDTH 12 0
BBX 10 16 1 -3
BITMAP
E0C0
E0C0
E0C0
E0C0
E0C0
E0C0
E0C0
E0C0
E0C0
E1C0
7F80
7F80
1E00
1800
1C00
1E00
ENDCHAR
STARTCHAR uogonek
ENCODING 371
SWIDTH 562 0
DWIDTH 10 0
BBX 9 12 1 -3
BITMAP
C300
C300
C300
C300
C300
C300
E700
7F00
3D00
0300
0380
0380
ENDCHAR
STARTCHAR Wcircumflex
ENCODING 372
SWIDTH 819 0
DWIDTH 15 0
BBX 13 16 1 0
BITMAP
0600
0F80
0500
E738
E738
E738
E738
E738
E738
E738
E738
E738
E738
EF38
7FF0
3DE0
ENDCHAR
STARTCHAR wcircumflex
ENCODING 373
SWIDTH 756 0
DWIDTH 14 0
BBX 12 13 1 0
BITMAP
0600
0F00
0900
0000
C670
C670
C670
C670
C670
C670
EE70
FFE0
7FC0
ENDCHAR
STARTCHAR Ycircumflex
ENCODING 374
SWIDTH 620 0
DWIDTH 11 0
BBX 10 16 1 0
BITMAP
1C00
3E00
1400
C1C0
C1C0
C1C0
C1C0
C1C0
C180
F380
7F00
3E00
1C00
1C00
1C00
1C00
ENDCHAR
STARTCHAR ycircumflex
ENCODING 375
SWIDTH 562 0
DWIDTH 10 0
BBX 8 17 1 -4
BITMAP
18
3C
24
00
C3
C3
C3
C3
C3
C3
E7
7F
3F
07
3E
3C
30
ENDCHAR
STARTCHAR Ydieresis
ENCODING 376
SWIDTH 620 0
DWIDTH 11 0
BBX 10 16 1 0
BITMAP
3200
3600
0000
C1C0
C1C0
C1C0
C1C0
C1C0
C180
F380
7F00
3E00
1C00
1C00
1C00
1C00
ENDCHAR
STARTCHAR Zacute
ENCODING 377
SWIDTH 586 0
DWIDTH 11 0
BBX 10 16 0 0
BITMAP
0300
0700
0600
FFC0
FFC0
FF80
0780
0700
0E00
0E00
1C00
1C00
3800
3FC0
7FC0
7FC0
ENDCHAR
STARTCHAR zacute
ENCODING 378
SWIDTH 481 0
DWIDTH 9 0
BBX 8 13 0 0
BITMAP
06
0E
0C
00
FF
FE
0E
0C
18
38
30
7F
7F
ENDCHAR
STARTCHAR Zdotaccent
ENCODING 379
SWIDTH 586 0
DWIDTH 11 0
BBX 10 16 0 0
BITMAP
0C00
0C00
0000
FFC0
FFC0
FF80
0780
0700
0E00
0E00
1C00
1C00
3800
3FC0
7FC0
7FC0
ENDCHAR
STARTCHAR zdotaccent
ENCODING 380
SWIDTH 481 0
DWIDTH 9 0
BBX 8 13 0 0
BITMAP
18
18
00
00
FF
FE
0E
0C
18
38
30
7F
7F
ENDCHAR
STARTCHAR Zcaron
ENCODING 381
SWIDTH 586 0
DWIDTH 11 0
BBX 10 17 0 0
BITMAP
0200
1F00
0E00
0400
FFC0
FFC0
FF80
0780
0700
0E00
0E00
1C00
1C00
3800
3FC0
7FC0
7FC0
ENDCHAR
STARTCHAR zcaron
ENCODING 382
SWIDTH 481 0
DWIDTH 9 0
BBX 8 14 0 0
BITMAP
04
3E
1C
08
00
FF
FE
0E
0C
18
38
30
7F
7F
ENDCHAR
STARTCHAR AEacute
ENCODING 508
SWIDTH 988 0
DWIDTH 18 0
BBX 16 17 1 0
BITMAP
0020
0060
00F0
00C0
0FFF
3FFF
7FFF
E0C0
E0C0
E0FC
E0FC
E0FC
FFC0
FFC0
E0FF
E0FF
E0FF
ENDCHAR
STARTCHAR aeacute
ENCODING 509
SWIDTH 976 0
DWIDTH 18 0
BBX 17 13 0 0
BITMAP
003000
007000
006000
0E0E00
3F7F80
7FFF80
61F700
E0E600
E0EE00
61FD00
73FB80
7FFF80
1E5F00
ENDCHAR
STARTCHAR Oslashacute
ENCODING 510
SWIDTH 777 0
DWIDTH 14 0
BBX 14 17 0 0
BITMAP
00C0
03C0
0100
0000
07B8
1FF0
3FF0
78F8
71F8
6198
E31C
6718
6E18
7C38
3CF0
3FE0
3FC0
ENDCHAR
STARTCHAR oslashacute
ENCODING 511
SWIDTH 579 0
DWIDTH 10 0
BBX 10 14 0 0
BITMAP
0300
0700
0600
0000
0EC0
3F80
7F80
67C0
E6C0
ECC0
7DC0
7B80
3F80
7F00
ENDCHAR
STARTCHAR dotlessj
ENCODING 567
SWIDTH 237 0
DWIDTH 4 0
BBX 6 13 -3 -4
BITMAP
0C
0C
0C
0C
0C
0C
0C
0C
0C
1C
FC
F8
E0
ENDCHAR
STARTCHAR circumflex
ENCODING 710
SWIDTH 267 0
DWIDTH 5 0
BBX 5 3 0 9
BITMAP
70
F8
50
ENDCHAR
STARTCHAR caron
ENCODING 711
SWIDTH 267 0
DWIDTH 5 0
BBX 5 3 0 9
BITMAP
F8
70
20
ENDCHAR
STARTCHAR breve
ENCODING 728
SWIDTH 220 0
DWIDTH 4 0
BBX 4 2 0 10
BITMAP
F0
F0
ENDCHAR
STARTCHAR dotaccent
ENCODING 729
SWIDTH 125 0
DWIDTH 2 0
BBX 2 2 0 10
BITMAP
C0
C0
ENDCHAR
STARTCHAR ring
ENCODING 730
SWIDTH 192 0
DWIDTH 3 0
BBX 3 4 0 9
BITMAP
60
A0
A0
60
ENDCHAR
STARTCHAR ogonek
ENCODING 731
SWIDTH 212 0
DWIDTH 4 0
BBX 4 4 0 -3
BITMAP
20
C0
E0
F0
ENDCHAR
STARTCHAR tilde
ENCODING 732
SWIDTH 321 0
DWIDTH 6 0
BBX 6 3 0 9
BITMAP
EC
FC
C8
ENDCHAR
STARTCHAR hungarumlaut
ENCODING 733
SWIDTH 384 0
DWIDTH 7 0
BBX 7 4 0 9
BITMAP
64
6E
DC
08
ENDCHAR
STARTCHAR uni0312
ENCODING 786
SWIDTH 192 0
DWIDTH 3 0
BBX 2 3 1 10
BITMAP
80
C0
C0
ENDCHAR
STARTCHAR uni0315
ENCODING 789
SWIDTH 132 0
DWIDTH 2 0
BBX 2 4 0 9
BITMAP
40
C0
C0
40
ENDCHAR
STARTCHAR uni0326
ENCODING 806
SWIDTH 193 0
DWIDTH 3 0
BBX 2 3 1 -4
BITMAP
C0
C0
C0
ENDCHAR
STARTCHAR pi
ENCODING 960
SWIDTH 555 0
DWIDTH 10 0
BBX 10 9 0 0
BITMAP
FFC0
FFC0
3300
3300
3300
3300
3300
3300
3300
ENDCHAR
STARTCHAR Wgrave
ENCODING 7808
SWIDTH 819 0
DWIDTH 15 0
BBX 13 17 1 0
BITMAP
0800
0C00
1E00
0600
E738
E738
E738
E738
E738
E738
E738
E738
E738
E738
EF38
7FF0
3DE0
ENDCHAR
STARTCHAR wgrave
ENCODING 7809
SWIDTH 756 0
DWIDTH 14 0
BBX 12 13 1 0
BITMAP
1800
1C00
0C00
0000
C670
C670
C670
C670
C670
C670
EE70
FFE0
7FC0
ENDCHAR
STARTCHAR Wacute
ENCODING 7810
SWIDTH 819 0
DWIDTH 15 0
BBX 13 16 1 0
BITMAP
0180
0380
0300
E738
E738
E738
E738
E738
E738
E738
E738
E738
E738
EF38
7FF0
3DE0
ENDCHAR
STARTCHAR wacute
ENCODING 7811
SWIDTH 756 0
DWIDTH 14 0
BBX 12 13 1 0
BITMAP
0180
0380
0200
0000
C670
C670
C670
C670
C670
C670
EE70
FFE0
7FC0
ENDCHAR
STARTCHAR Wdieresis
ENCODING 7812
SWIDTH 819 0
DWIDTH 15 0
BBX 13 16 1 0
BITMAP
0D80
0D80
0000
E738
E738
E738
E738
E738
E738
E738
E738
E738
E738
EF38
7FF0
3DE0
ENDCHAR
STARTCHAR wdieresis
ENCODING 7813
SWIDTH 756 0
DWIDTH 14 0
BBX 12 13 1 0
BITMAP
0900
1B80
0000
0000
C670
C670
C670
C670
C670
C670
EE70
FFE0
7FC0
ENDCHAR
STARTCHAR Ygrave
ENCODING 7922
SWIDTH 620 0
DWIDTH 11 0
BBX 10 16 1 0
BITMAP
6000
7800
1000
C1C0
C1C0
C1C0
C1C0
C1C0
C180
F380
7F00
3E00
1C00
1C00
1C00
1C00
ENDCHAR
STARTCHAR ygrave
ENCODING 7923
SWIDTH 562 0
DWIDTH 10 0
BBX 8 17 1 -4
BITMAP
60
70
30
00
C3
C3
C3
C3
C3
C3
E7
7F
3F
07
3E
3C
30
ENDCHAR
STARTCHAR endash
ENCODING 8211
SWIDTH 418 0
DWIDTH 8 0
BBX 5 3 1 5
BITMAP
F8
F8
F8
ENDCHAR
STARTCHAR emdash
ENCODING 8212
SWIDTH 719 0
DWIDTH 13 0
BBX 11 3 1 5
BITMAP
FFE0
FFE0
FFE0
ENDCHAR
STARTCHAR quoteleft
ENCODING 8216
SWIDTH 246 0
DWIDTH 4 0
BBX 3 4 1 8
BITMAP
C0
C0
E0
C0
ENDCHAR
STARTCHAR quoteright
ENCODING 8217
SWIDTH 245 0
DWIDTH 4 0
BBX 3 5 1 8
BITMAP
40
E0
E0
40
C0
ENDCHAR
STARTCHAR quotesinglbase
ENCODING 8218
SWIDTH 264 0
DWIDTH 5 0
BBX 3 4 1 -2
BITMAP
E0
E0
60
40
ENDCHAR
STARTCHAR quotedblleft
ENCODING 8220
SWIDTH 445 0
DWIDTH 8 0
BBX 6 4 1 8
BITMAP
C8
DC
FC
CC
ENDCHAR
STARTCHAR quotedblright
ENCODING 8221
SWIDTH 444 0
DWIDTH 8 0
BBX 6 5 1 8
BITMAP
48
FC
FC
4C
C8
ENDCHAR
STARTCHAR quotedblbase
ENCODING 8222
SWIDTH 463 0
DWIDTH 8 0
BBX 6 4 1 -2
BITMAP
EC
EC
6C
4C
ENDCHAR
STARTCHAR dagger
ENCODING 8224
SWIDTH 434 0
DWIDTH 8 0
BBX 6 16 1 -2
BITMAP
30
30
30
FC
FC
30
30
30
30
30
30
30
30
30
30
30
ENDCHAR
STARTCHAR daggerdbl
ENCODING 8225
SWIDTH 452 0
DWIDTH 8 0
BBX 6 16 1 -2
BITMAP
30
30
30
FC
FC
30
30
30
30
30
FC
FC
30
30
30
30
ENDCHAR
STARTCHAR bullet
ENCODING 8226
SWIDTH 354 0
DWIDTH 6 0
BBX 4 3 1 5
BITMAP
70
F0
70
ENDCHAR
STARTCHAR ellipsis
ENCODING 8230
SWIDTH 789 0
DWIDTH 14 0
BBX 12 3 1 -1
BITMAP
E670
E770
4220
ENDCHAR
STARTCHAR perthousand
ENCODING 8240
SWIDTH 998 0
DWIDTH 18 0
BBX 16 13 1 0
BITMAP
70C0
F180
9980
9B00
DA00
F600
2C00
0FCF
1BFF
1A79
3279
33FF
63CF
ENDCHAR
STARTCHAR guilsinglleft
ENCODING 8249
SWIDTH 403 0
DWIDTH 7 0
BBX 6 8 0 1
BITMAP
0C
1C
38
70
F0
78
1C
0C
ENDCHAR
STARTCHAR guilsinglright
ENCODING 8250
SWIDTH 402 0
DWIDTH 7 0
BBX 6 9 1 0
BITMAP
40
E0
70
38
1C
38
70
E0
40
ENDCHAR
STARTCHAR fraction
ENCODING 8260
SWIDTH 477 0
DWIDTH 9 0
BBX 9 13 0 0
BITMAP
0180
0300
0300
0600
0400
0C00
1800
1800
3000
3000
6000
6000
C000
ENDCHAR
STARTCHAR Euro
ENCODING 8364
SWIDTH 806 0
DWIDTH 15 0
BBX 13 13 1 0
BITMAP
01C0
07F0
0FF0
1C10
7F00
FF00
3800
FE00
FE00
1C00
1E30
0FF8
07F0
ENDCHAR
STARTCHAR trademark
ENCODING 8482
SWIDTH 606 0
DWIDTH 11 0
BBX 9 5 1 8
BITMAP
F500
4A80
4A80
4A80
4A80
ENDCHAR
STARTCHAR partialdiff
ENCODING 8706
SWIDTH 609 0
DWIDTH 11 0
BBX 9 14 1 0
BITMAP
1C00
0E00
0E00
0700
1F00
7F00
FF80
E380
C180
C180
C180
E380
7F00
3E00
ENDCHAR
STARTCHAR product
ENCODING 8719
SWIDTH 632 0
DWIDTH 11 0
BBX 10 13 1 0
BITMAP
FFC0
FFC0
FFC0
7300
7300
7300
7300
7300
7300
7300
7300
7300
7300
ENDCHAR
STARTCHAR minus
ENCODING 8722
SWIDTH 543 0
DWIDTH 10 0
BBX 8 3 1 5
BITMAP
FF
FF
FF
ENDCHAR
STARTCHAR infinity
ENCODING 8734
SWIDTH 771 0
DWIDTH 14 0
BBX 12 8 1 2
BITMAP
39C0
FFE0
EFF0
C630
C630
EF70
FFE0
39C0
ENDCHAR
STARTCHAR approxequal
ENCODING 8776
SWIDTH 476 0
DWIDTH 9 0
BBX 6 7 1 3
BITMAP
64
FC
DC
00
64
FC
DC
ENDCHAR
STARTCHAR notequal
ENCODING 8800
SWIDTH 512 0
DWIDTH 9 0
BBX 7 11 1 1
BITMAP
06
0C
0C
FE
FE
18
FE
FE
FE
60
60
ENDCHAR
STARTCHAR fi
ENCODING 64257
SWIDTH 650 0
DWIDTH 12 0
BBX 11 14 0 0
BITMAP
0F40
3FE0
38E0
3040
3000
FFE0
FFE0
30E0
30E0
30E0
30E0
30E0
30E0
30E0
ENDCHAR
STARTCHAR fl
ENCODING 64258
SWIDTH 631 0
DWIDTH 11 0
BBX 10 14 0 0
BITMAP
0FC0
3FC0
38C0
30C0
30C0
FEC0
FEC0
30C0
30C0
30C0
30C0
30C0
30C0
30C0
ENDCHAR
STARTCHAR .notdef
ENCODING -1
SWIDTH 279 0
DWIDTH 5 0
BBX 1 1 0 0
BITMAP
00
ENDCHAR
STARTCHAR .null
ENCODING -1
SWIDTH 0 0
DWIDTH 0 0
BBX 1 1 0 0
BITMAP
00
ENDCHAR
STARTCHAR nonmarkingreturn
ENCODING -1
SWIDTH 279 0
DWIDTH 5 0
BBX 1 1 0 0
BITMAP
00
ENDCHAR
ENDFONT
